<?xml version="1.0" encoding="utf-8"?>
<!-- Generator: Adobe Illustrator 23.0.1, SVG Export Plug-In . SVG Version: 6.00 Build 0)  -->
<svg version="1.1" id="Layer_1" xmlns="http://www.w3.org/2000/svg" xmlns:xlink="http://www.w3.org/1999/xlink" x="0px" y="0px"
	 viewBox="0 0 350 350" style="enable-background:new 0 0 350 350;" xml:space="preserve">
<style type="text/css">
	.st0{fill:#66767F;}
	.st1{fill:#CDD7DE;}
	.st2{fill:#DE3045;}
	.st3{fill:#2A2F33;}
	.st4{fill:#8D97CC;}
	.st5{fill:#8B98CB;}
	.st6{fill:#161824;}
	.st7{fill:#CED7DC;}
</style>
<path class="st0" d="M245.9,82.1h13.2v6.6h-13.2V82.1z"/>
<path class="st1" d="M68.9,134.9v132c0,14.6,11.8,26.4,26.4,26.4h158.5c14.6,0,26.4-11.8,26.4-26.4v-132
	C280.2,134.9,68.9,134.9,68.9,134.9z"/>
<path class="st2" d="M253.8,82.1H95.3c-14.6,0-26.4,11.8-26.4,26.4v33h211.3v-33C280.2,93.9,268.3,82.1,253.8,82.1z"/>
<path class="st3" d="M114,113.3c-4.6,0-8.4-4.4-8.4-9.8c0-5.4,3.8-9.8,8.4-9.8c4.6,0,8.4,4.4,8.4,9.8S118.7,113.3,114,113.3z
	 M153.6,113.3c-4.6,0-8.4-4.4-8.4-9.8c0-5.4,3.8-9.8,8.4-9.8c4.6,0,8.4,4.4,8.4,9.8S158.3,113.3,153.6,113.3z M193.3,113.3
	c-4.6,0-8.4-4.4-8.4-9.8c0-5.4,3.8-9.8,8.4-9.8c4.6,0,8.4,4.4,8.4,9.8C201.6,108.9,197.9,113.3,193.3,113.3z M232.9,113.3
	c-4.6,0-8.4-4.4-8.4-9.8c0-5.4,3.8-9.8,8.4-9.8c4.6,0,8.4,4.4,8.4,9.8C241.3,108.9,237.5,113.3,232.9,113.3z"/>
<path class="st0" d="M236,56.9c-8.4,0-15.7,5.3-19.8,13c-4-7.5-11.3-13-19.8-13c-8.4,0-15.7,5.3-19.8,13c-4-7.5-11.3-13-19.8-13
	c-8.4,0-15.7,5.3-19.8,13c-4-7.5-11.3-13-19.8-13c-12.8,0-23.1,12-23.1,26.4c0,12.2,6.9,22.3,17,25.9c5,1.8,8.1-3,7.7-6.8
	c-0.4-3.2-2.5-5.2-4.8-6.7c-3.2-2-6.6-6.7-6.6-12.4c0-7.3,4.4-13.8,9.9-13.8s9.9,6,9.9,12.6h6.7c0,0.4-0.1,0.8-0.1,1.2
	c0,12.2,6.9,22.3,17,25.9c5,1.8,8.1-3,7.7-6.8c-0.4-3.2-2.5-5.2-4.8-6.7c-3.2-2-6.6-6.7-6.6-12.4c0-7.3,4.4-13.8,9.9-13.8
	s9.9,6,9.9,12.6h6.7c0,0.4-0.1,0.8-0.1,1.2c0,12.2,6.9,22.3,17,25.9c5,1.8,8.1-3,7.7-6.8c-0.4-3.2-2.5-5.2-4.8-6.7
	c-3.2-2-6.6-6.7-6.6-12.4c0-7.3,4.4-13.8,9.9-13.8s9.9,6,9.9,12.6h6.7c0,0.4-0.1,0.8-0.1,1.2c0,12.2,6.9,22.3,17,25.9
	c5,1.8,8.1-3,7.7-6.8c-0.4-3.2-2.5-5.2-4.8-6.7c-3.2-2-6.6-6.7-6.6-12.4c0-7.3,4.4-13.8,9.9-13.8s9.9,6,9.9,12.6h13.2
	C259,68.9,248.7,56.9,236,56.9z"/>
<g>
	<path class="st4" d="M226.6,248.2c-1.6,1-3.3,1.9-4.9,2.8c-5.6,3-11.5,5.3-17.6,7c-3.9,1.1-7.9,1.9-12,2.6c-1,0.2-2,0.4-3,0.4
		c-0.2,0.1-0.4,0-0.6,0.1c-0.1,0-0.3,0-0.4,0c-0.2,0.1-0.4,0-0.6,0.1c-0.2,0-0.3,0-0.5,0c-0.2,0.1-0.4,0-0.6,0.1c-0.1,0-0.3,0-0.4,0
		c-0.2,0.1-0.4,0-0.6,0.1c-0.2,0-0.3,0-0.5,0c-0.3,0.1-0.6,0-1,0.1c-0.3,0-0.6,0-0.8,0c-0.3,0.1-0.6,0-1,0.1c-0.3,0-0.6,0-0.9,0
		c-0.3,0.1-0.6,0-1,0.1c-0.5,0-0.9,0.1-1.4,0c-0.7,0.1-1.4,0-2.2,0.1c-0.2,0-0.4,0-0.6,0c-1.3,0.1-2.6,0.1-3.8,0
		c-0.7-0.1-1.4,0-2.2,0c-0.2,0-0.4,0-0.6,0c-0.5,0.1-0.9,0-1.4,0c-0.3-0.1-0.6,0-1-0.1c-0.3,0-0.6,0-0.9,0c-0.3-0.1-0.6,0-1-0.1
		c-0.3,0-0.6,0-0.8,0c-0.3-0.1-0.6,0-1-0.1c-0.2,0-0.3,0-0.5,0c-0.2-0.1-0.4,0-0.6-0.1c-0.1,0-0.3,0-0.4,0c-0.2-0.1-0.4,0-0.6-0.1
		c-0.2,0-0.3,0-0.5,0c-0.2-0.1-0.4,0-0.6-0.1c-0.1,0-0.3,0-0.4,0c-0.2-0.1-0.4,0-0.6-0.1c-1.3,0-2.6-0.3-3.8-0.5
		c-3.4-0.5-6.8-1.2-10.2-2.1c-4.5-1.2-8.9-2.7-13.1-4.6c-5.1-2.2-9.9-4.9-14.5-8c-1-0.7-2-1.4-3-2.1c-0.1,0.1-0.1,0.2,0,0.3
		c0.9,1.2,2,2.2,3.1,3.3c1.3,1.3,2.7,2.6,4.1,3.8c2.6,2.2,5.4,4.3,8.3,6.1c1.7,1.1,3.5,2.1,5.3,3.1c2.4,1.3,4.8,2.3,7.3,3.4
		c1.1,0.5,2.2,0.9,3.3,1.2c0.4,0.1,0.4,0.2,0.2,0.5c-0.8,1-1.6,2.1-2.4,3.1c-1.1,1.4-2.2,2.8-3.2,4.3c-0.4,0.6-0.8,0.3-1.3,0.4
		c-0.3-0.1-0.6,0-0.9-0.1c-0.3,0-0.5,0-0.8,0c-0.2-0.1-0.4,0-0.6-0.1c-0.2,0-0.4,0-0.5,0c-0.2-0.1-0.4,0-0.6-0.1
		c-1.7-0.1-3.4-0.4-5.1-0.7c-4.3-0.8-8.5-1.9-12.5-3.4c-5.9-2.1-11.4-5-16.5-8.6c-1.9-1.4-3.8-2.9-5.6-4.5c-1.6-1.4-3-3-4.5-4.5
		c-0.3-0.3-0.4-0.6-0.3-1c0.1-0.3,0-0.6,0.1-0.8c0-0.3,0-0.5,0-0.8c0.1-0.3,0-0.6,0.1-0.8c0-0.2,0-0.5,0-0.7c0.1-0.3,0-0.6,0.1-0.8
		c0-0.2,0-0.5,0-0.7c0.1-0.2,0-0.4,0.1-0.6c0-0.2,0-0.4,0-0.6c0.1-0.2,0-0.4,0.1-0.6c0-0.2,0-0.4,0-0.6c0.1-0.2,0-0.4,0.1-0.6
		c0-0.2,0-0.4,0-0.6c0.1-0.2,0-0.4,0.1-0.6c0-0.2,0-0.3,0-0.5c0.1-0.2,0-0.4,0.1-0.6c0-0.1,0-0.3,0-0.4c0.1-0.2,0-0.4,0.1-0.6
		c0-0.1,0-0.3,0-0.4c0.1-0.2,0-0.4,0.1-0.6c0-0.1,0-0.3,0-0.4c0.1-0.2,0-0.4,0.1-0.6c0-1.2,0.3-2.3,0.4-3.5c0.2-1.5,0.4-2.9,0.6-4.4
		c0.3-1.7,0.5-3.5,0.8-5.2c0.5-2.6,1-5.2,1.5-7.8c0.7-3.3,1.5-6.5,2.3-9.8c0.5-1.8,1-3.7,1.5-5.5c0.2-0.1,0.3-0.3,0.2-0.6
		c0.2-0.9,0.5-1.8,0.8-2.7c0.3-0.2,0.5-0.5,0.3-0.9c0.2-0.9,0.5-1.8,0.9-2.6c0.3-0.1,0.2-0.3,0.2-0.5c1.3-3.8,2.7-7.6,4.3-11.2
		c0.3-0.7,0.6-1.5,1-2.2c0.4-0.1,0.2-0.4,0.3-0.6c0.3-0.6,0.5-1.2,0.8-1.8c0.4-0.1,0.2-0.4,0.3-0.6c0.4-1,0.9-2,1.5-2.9
		c0.2-0.1,0.4-0.3,0.3-0.6c0.1-0.3,0.3-0.6,0.5-0.9c0.2-0.1,0.4-0.3,0.3-0.6c0.1-0.2,0.2-0.3,0.3-0.5c0.2-0.1,0.4-0.3,0.3-0.6
		c0-0.1,0.1-0.2,0.2-0.2c0.4-0.3,0.6-0.7,0.7-1.1c0.1-0.3,0.3-0.6,0.6-0.9c0.3-0.1,0.4-0.3,0.4-0.6c0.4-0.6,1.1-1,1.7-1.4
		c0.3,0,0.5-0.2,0.6-0.4c0.2-0.1,0.4-0.2,0.6-0.4c0.3,0,0.4-0.1,0.6-0.3c0.4-0.4,0.9-0.7,1.3-0.9c0.3,0,0.5-0.1,0.6-0.4
		c0.3-0.2,0.6-0.4,0.9-0.6c0.3,0.1,0.5-0.1,0.6-0.3c0.3-0.1,0.5-0.4,0.8-0.5c0.3,0.1,0.5-0.1,0.6-0.3c0-0.1,0.2-0.1,0.2-0.1
		c0.3,0,0.5-0.1,0.6-0.4c0.2-0.2,0.4-0.3,0.7-0.3c0.3,0,0.5-0.1,0.6-0.4c1.4-0.7,2.9-1.5,4.3-2.2c1.4-0.7,2.9-1.3,4.4-1.9
		c0.3,0.1,0.4,0,0.6-0.2c0.5-0.2,1.1-0.4,1.6-0.6c0.3,0.1,0.4,0,0.6-0.2c0.3-0.1,0.7-0.2,1-0.3c0.3,0.1,0.4,0,0.6-0.2
		c2.3-0.7,4.5-1.4,6.8-1.9c0.7-0.2,1.4-0.4,2.2-0.4c0.2-0.1,0.5,0.2,0.7-0.1c0.6-0.3,1.3-0.2,2-0.3c0.3,0,0.6-0.2,0.9-0.1
		c0.2-0.1,0.4,0,0.6-0.1c0.1,0,0.3,0,0.4,0c0.2-0.1,0.4,0,0.6-0.1c0.3-0.1,0.4,0.1,0.5,0.3c0.5,0.9,0.9,1.9,1.4,2.8
		c0.2,0.4,0.2,0.7-0.3,0.7c-0.1,0-0.3,0.1-0.4,0.1c-0.3-0.2-0.5,0.1-0.8,0.2c-1,0.3-2,0.5-3,0.8c-0.3-0.1-0.5,0.1-0.7,0.2
		c-1,0.3-2,0.6-2.9,0.9c-0.3-0.1-0.4,0-0.6,0.2c-0.1,0-0.3,0.1-0.4,0.1c-0.2,0.2-0.6-0.1-0.8,0.3c-0.2,0.1-0.3,0.2-0.6,0.2
		c-0.2,0.1-0.6-0.1-0.7,0.3c-0.2,0.1-0.3,0.3-0.5,0.2c-0.2,0-0.4-0.1-0.5,0.2c-2.2,1-4.4,1.9-6.5,3.1c-0.7,0.4-1.4,0.7-2.1,1.1
		c-0.3-0.1-0.4,0.1-0.6,0.3c-0.8,0.5-1.6,1-2.4,1.5c-0.3,0-0.4,0.1-0.6,0.4c-0.2,0.2-0.5,0.4-0.8,0.4c-0.2,0.1-0.5,0.2-0.6,0.5
		c-0.3,0.2-0.5,0.5-0.9,0.6c-0.2,0.1-0.5,0.2-0.6,0.5c-1.3,1-2.6,2-3.8,2.9c-0.2,0.1-0.5,0.2-0.6,0.5c-0.6,0.5-1.1,1-1.7,1.5
		c-0.2,0.1-0.5,0.2-0.6,0.5c-0.3,0.5-1,0.7-1.2,1.3c0.6-0.3,1.2-0.5,1.8-0.8c0.9-0.2,1.7-0.6,2.4-1.2c0.4-0.3,0.8-0.5,1.3-0.6
		c0.4,0.1,0.6,0,0.8-0.3c1.6-0.9,3.3-1.6,5-2.4c0.3,0.1,0.4,0,0.6-0.2c1.5-0.6,2.9-1.3,4.4-1.9c2.4-0.9,4.8-1.8,7.2-2.6
		c0.1,0,0.1,0,0.2,0c0.2,0.1,0.4,0.1,0.5-0.2c2.6-0.9,5.2-1.5,7.9-2.1c2.4-0.5,4.8-1,7.3-1.3c1.1-0.2,2.3-0.3,3.4-0.4
		c0.2-0.1,0.4,0,0.6-0.1c0.2,0,0.4,0,0.6,0c0.2-0.1,0.4,0,0.6-0.1c0.2,0,0.4,0,0.6,0c0.2-0.1,0.4,0,0.6-0.1c0.2,0,0.4,0,0.6,0
		c0.3-0.1,0.6,0,0.9-0.1c0.3,0,0.6,0,1,0c0.4-0.1,0.7,0,1.1-0.1c0.4,0,0.7,0,1.1,0c0.4-0.1,0.9,0,1.3-0.1c1.1,0,2.2-0.1,3.3,0
		c0.7-0.1,1.4-0.1,2.2,0c1.1-0.1,2.2,0,3.3,0c0.4,0.1,0.9,0,1.3,0.1c0.4,0,0.7,0,1.1,0c0.4,0.1,0.7,0,1.1,0.1c0.3,0,0.6,0,1,0
		c0.3,0.1,0.6,0,0.9,0.1c0.2,0,0.4,0,0.6,0c0.2,0.1,0.4,0,0.6,0.1c0.2,0,0.4,0,0.6,0c0.2,0.1,0.4,0,0.6,0.1c0.2,0,0.4,0,0.6,0
		c0.2,0.1,0.4,0,0.6,0.1c0.8,0.1,1.5,0.2,2.3,0.3c0.6,0.1,1.2,0.2,1.8,0.2c0.8,0.1,1.6,0.3,2.4,0.4c1.1,0.2,2.2,0.4,3.3,0.6
		c2.6,0.5,5.2,1.2,7.7,1.9c1.6,0.5,3.2,1,4.8,1.6c2.1,0.8,4.2,1.6,6.3,2.5c2.4,1,4.7,2.1,7.1,3.2c2.2,1,4.4,2.1,6.5,3.3
		c0.1,0,0.2,0.2,0.4,0.1c-0.3-0.6-0.9-0.9-1.4-1.3c-2-1.8-4.1-3.5-6.3-5.1c-4.6-3.4-9.5-6.1-14.7-8.2c-4-1.6-8-2.8-12.2-3.9
		c-0.7-0.2-0.7-0.2-0.4-0.8c0.4-0.8,0.8-1.6,1.2-2.4c0.2-0.5,0.5-0.6,1-0.6c2.9,0.3,5.8,0.8,8.7,1.5c3.4,0.8,6.7,1.9,9.9,3.3
		c2.8,1.2,5.5,2.5,8.2,3.9c2.5,1.3,4.9,2.8,7.2,4.3c1,0.6,1.9,1.3,2.8,2c0.5,0.4,0.8,1.1,1.1,1.6c1.5,2.5,2.8,4.9,4,7.5
		c0.9,2,1.8,3.9,2.7,5.9c1,2.5,2.1,5,2.9,7.5c0.7,2.1,1.5,4.1,2.2,6.2c1.1,3.4,2.1,6.8,3,10.2c0.6,2.3,1.2,4.7,1.7,7
		c0.4,1.9,0.8,3.8,1.2,5.8c0.3,1.8,0.7,3.5,1,5.3c0.2,1,0.3,2.1,0.5,3.1c0.2,1.1,0.3,2.2,0.5,3.3c0.2,0.7,0.2,1.5,0.2,2.2
		c0.1,0.7,0.2,1.4,0.3,2c0.1,0.5,0.1,0.9,0.1,1.4c0.1,0.2,0,0.4,0.1,0.6c0,0.1,0,0.3,0,0.4c0.1,0.2,0,0.4,0.1,0.6c0,0.1,0,0.3,0,0.4
		c0.1,0.2,0,0.4,0.1,0.6c0,0.1,0,0.3,0,0.4c0.1,0.2,0,0.4,0.1,0.6c0,0.2,0,0.3,0,0.5c0.1,0.2,0,0.4,0.1,0.6c0,0.2,0,0.4,0,0.6
		c0.1,0.2,0,0.4,0.1,0.6c0,0.2,0,0.4,0,0.6c0.1,0.2,0,0.4,0.1,0.6c0,0.2,0,0.4,0,0.6c0.1,0.2,0,0.4,0.1,0.6c0,0.2,0,0.5,0,0.7
		c0.1,0.3,0,0.6,0.1,0.8c0,0.2,0,0.5,0,0.7c0.1,0.3,0,0.6,0.1,0.8c0,0.2,0,0.5,0,0.7c0.1,0.3,0,0.6,0.1,0.8c0.1,0.4,0,0.7-0.3,1
		c-1.1,1.2-2.3,2.4-3.5,3.5c-1.5,1.5-3.1,2.8-4.7,4.1c-2.9,2.3-6,4.3-9.2,6c-5.2,2.8-10.7,4.9-16.5,6.4c-3.2,0.8-6.4,1.4-9.7,1.9
		c-0.2,0-0.4,0-0.6,0c-0.2,0.1-0.4,0-0.6,0.1c-0.2,0-0.3,0-0.5,0c-0.2,0.1-0.4,0-0.6,0.1c-0.2,0-0.5,0-0.7,0c-0.3,0.1-0.6,0-0.9,0.1
		c-0.7,0.2-1.2-0.1-1.7-0.7c-1.8-2.5-3.7-4.9-5.5-7.4c12.4-4.4,23.1-11.3,31.8-21.2"/>
	<path class="st4" d="M122.2,173v0.1c-0.2,0.6-1.8,1.4-2.4,1.1C120.6,173.7,121.4,173.4,122.2,173z"/>
	<path class="st4" d="M112.9,169.4c0.2,0.4-0.2,1-0.7,1.1C112.4,170.1,112.7,169.8,112.9,169.4z"/>
	<path class="st5" d="M176.1,261.8c0.9-0.2,1.8-0.1,2.8-0.1C177.9,261.8,177,261.8,176.1,261.8z"/>
	<path class="st5" d="M169.5,261.7c0.9,0,1.9-0.1,2.8,0.1C171.3,261.8,170.4,261.8,169.5,261.7z"/>
	<path class="st4" d="M101.2,196.3c0.3,0.5,0.2,0.7-0.3,0.9C101,196.9,101.1,196.6,101.2,196.3z"/>
	<path class="st4" d="M124.3,172c-0.2,0.6-0.3,0.7-0.8,0.3C123.7,172.2,124,172.1,124.3,172z"/>
	<path class="st5" d="M175.3,160.3c-0.7,0-1.4,0-2.2,0C173.8,160.2,174.5,160.2,175.3,160.3z"/>
	<path class="st4" d="M116.1,166.2c0,0.4-0.1,0.7-0.6,0.4C115.7,166.4,115.9,166.3,116.1,166.2z"/>
	<path class="st4" d="M151.6,156.8c0.2-0.1,0.4-0.7,0.8-0.2C152.1,156.7,151.9,156.7,151.6,156.8z"/>
	<path class="st4" d="M122,162.5c0,0.4-0.1,0.6-0.6,0.3C121.6,162.7,121.8,162.6,122,162.5z"/>
	<path class="st4" d="M120.6,163.3c0,0.4-0.1,0.6-0.6,0.3C120.2,163.4,120.4,163.3,120.6,163.3z"/>
	<path class="st4" d="M119.2,164.2c0,0.4-0.1,0.6-0.6,0.4C118.7,164.3,119,164.3,119.2,164.2z"/>
	<path class="st4" d="M112.1,170.8c0.3,0.4,0.3,0.5-0.3,0.6C111.9,171.1,112,171,112.1,170.8z"/>
	<path class="st4" d="M117.3,165.5c0,0.4-0.2,0.6-0.6,0.3C116.8,165.6,117,165.5,117.3,165.5z"/>
	<path class="st4" d="M147.9,157.8c0.2-0.3,0.3-0.7,0.7-0.2C148.3,157.7,148.1,157.7,147.9,157.8z"/>
	<path class="st4" d="M111.5,171.8c0.3,0.4,0.3,0.5-0.3,0.6C111.3,172.2,111.4,172,111.5,171.8z"/>
	<path class="st4" d="M110.7,173.3c0.3,0.4,0.3,0.4-0.3,0.6C110.5,173.6,110.6,173.4,110.7,173.3z"/>
	<path class="st4" d="M113.8,167.9c0.3,0.4,0,0.6-0.4,0.6C113.6,168.3,113.7,168.1,113.8,167.9z"/>
	<path class="st4" d="M124,161.4c0,0.4-0.1,0.6-0.6,0.4C123.6,161.5,123.8,161.4,124,161.4z"/>
	<path class="st4" d="M122.8,162c0,0.4-0.1,0.6-0.6,0.4C122.3,162.2,122.6,162.1,122.8,162z"/>
	<path class="st4" d="M146.7,153.4c-0.1,0.6-0.4,0.3-0.7,0.1C146.3,153.4,146.5,153.4,146.7,153.4z"/>
	<path class="st4" d="M143.1,159.3c0.1-0.6,0.5-0.2,0.8-0.3C143.7,159.2,143.4,159.3,143.1,159.3z"/>
	<path class="st4" d="M109,176.7c0,0.2,0.4,0.7-0.3,0.6C108.8,177.1,108.8,176.9,109,176.7z"/>
	<path class="st4" d="M107.9,179.1c0,0.2,0.4,0.7-0.3,0.6C107.7,179.5,107.7,179.3,107.9,179.1z"/>
	<path class="st4" d="M129.8,169.4c0,0.4-0.2,0.6-0.6,0.2C129.4,169.6,129.6,169.5,129.8,169.4z"/>
	<path class="st4" d="M137,155.8c-0.1,0.4-0.2,0.6-0.6,0.2C136.6,155.8,136.8,155.8,137,155.8z"/>
	<path class="st4" d="M135.4,156.3c-0.1,0.4-0.2,0.6-0.6,0.2C135,156.4,135.2,156.4,135.4,156.3z"/>
	<path class="st4" d="M133.3,157.1c-0.1,0.4-0.2,0.6-0.6,0.2C132.9,157.2,133.1,157.2,133.3,157.1z"/>
	<path class="st4" d="M144.4,158.9c0.1-0.4,0.2-0.6,0.6-0.2C144.7,158.8,144.6,158.8,144.4,158.9z"/>
	<path class="st4" d="M102.3,193.1c0.1,0.2,0.3,0.3,0.1,0.5c-0.1,0.1-0.2,0.1-0.3,0C102.2,193.5,102.2,193.3,102.3,193.1z"/>
	<path class="st4" d="M100.1,199.9c0.4,0.4,0.2,0.5-0.2,0.6C100,200.3,100,200.1,100.1,199.9z"/>
	<path class="st4" d="M131.7,164.7c0-0.4,0.2-0.6,0.6-0.3C132.1,164.4,131.9,164.6,131.7,164.7z"/>
	<path class="st4" d="M141.9,159.8c0-0.5,0.4-0.3,0.7-0.3C142.4,159.7,142.1,159.7,141.9,159.8z"/>
	<path class="st4" d="M128.8,166.5c0-0.4,0.2-0.6,0.6-0.4C129.2,166.3,129,166.4,128.8,166.5z"/>
	<path class="st4" d="M142.2,164.7c-0.1,0.4-0.3,0.5-0.5,0.2C141.8,164.7,142,164.8,142.2,164.7z"/>
	<path class="st4" d="M126,168.4c0-0.4,0.2-0.5,0.6-0.5C126.4,168.2,126.2,168.3,126,168.4z"/>
	<path class="st4" d="M127.4,167.4c0-0.4,0.2-0.5,0.6-0.5C127.9,167.2,127.7,167.3,127.4,167.4z"/>
	<path class="st4" d="M121.6,171.8c0-0.4,0.2-0.5,0.6-0.5C122,171.6,121.8,171.7,121.6,171.8z"/>
	<path class="st4" d="M119.3,173.7c0-0.4,0.2-0.5,0.6-0.5C119.8,173.5,119.5,173.6,119.3,173.7z"/>
	<path class="st4" d="M140.9,160.2c0-0.6,0.3-0.2,0.5-0.2C141.2,160.1,141.1,160.1,140.9,160.2z"/>
	<path class="st5" d="M169.8,160.3c-0.4,0.2-0.9,0.1-1.3,0.1C168.9,160.2,169.3,160.3,169.8,160.3z"/>
	<path class="st5" d="M179.9,160.4c-0.4,0-0.9,0.1-1.3-0.1C179,160.3,179.5,160.2,179.9,160.4z"/>
	<path class="st5" d="M182,160.5c-0.4,0-0.7,0.1-1.1-0.1C181.3,160.4,181.7,160.4,182,160.5z"/>
	<path class="st5" d="M167.4,160.4c-0.3,0.2-0.7,0.1-1.1,0.1C166.7,160.4,167,160.4,167.4,160.4z"/>
	<path class="st6" d="M114.7,243.6c0,0.1,0,0.2,0,0.3"/>
	<path class="st5" d="M209.1,273.1c0.3-0.2,0.6-0.1,0.9-0.1C209.7,273.1,209.4,273.1,209.1,273.1z"/>
	<path class="st5" d="M163.5,261.3c0.3,0,0.7-0.1,1,0.1C164.1,261.4,163.8,261.5,163.5,261.3z"/>
	<path class="st5" d="M183.9,261.4c0.3-0.2,0.6-0.1,1-0.1C184.5,261.5,184.2,261.4,183.9,261.4z"/>
	<path class="st5" d="M182.1,261.5c0.3-0.2,0.6-0.1,1-0.1C182.7,261.6,182.4,261.6,182.1,261.5z"/>
	<path class="st5" d="M167.1,261.6c0.3,0,0.6-0.1,1,0.1C167.8,261.7,167.4,261.7,167.1,261.6z"/>
	<path class="st5" d="M180.3,261.7c0.3-0.2,0.6-0.1,1-0.1C180.9,261.7,180.6,261.7,180.3,261.7z"/>
	<path class="st5" d="M138.3,273c0.3,0,0.6-0.1,0.9,0.1C139,273.1,138.6,273.1,138.3,273z"/>
	<path class="st5" d="M165.3,261.5c0.3,0,0.7-0.1,1,0.1C165.9,261.6,165.6,261.6,165.3,261.5z"/>
	<path class="st5" d="M256.9,249.9c-0.2-0.3-0.1-0.6-0.1-0.8C256.9,249.4,256.9,249.6,256.9,249.9z"/>
	<path class="st5" d="M165.4,160.5c-0.3,0.2-0.6,0.1-0.9,0.1C164.8,160.5,165.1,160.5,165.4,160.5z"/>
	<path class="st5" d="M183.8,160.6c-0.3,0-0.6,0.1-0.9-0.1C183.3,160.5,183.6,160.5,183.8,160.6z"/>
	<path class="st5" d="M91.7,245.9c0,0.3,0.1,0.6-0.1,0.8C91.6,246.5,91.6,246.2,91.7,245.9z"/>
	<path class="st5" d="M256.7,246.8c-0.2-0.3-0.1-0.6-0.1-0.8C256.7,246.2,256.7,246.5,256.7,246.8z"/>
	<path class="st5" d="M91.6,247.5c0,0.3,0.1,0.6-0.1,0.8C91.5,248.1,91.5,247.8,91.6,247.5z"/>
	<path class="st5" d="M256.8,248.3c-0.2-0.3-0.1-0.6-0.1-0.8C256.8,247.8,256.8,248.1,256.8,248.3z"/>
	<path class="st5" d="M91.5,249.1c0,0.3,0.1,0.6-0.1,0.8C91.4,249.6,91.4,249.4,91.5,249.1z"/>
	<path class="st6" d="M234,243.4"/>
	<path class="st5" d="M163.9,160.6c-0.2,0.1-0.4,0.1-0.6,0.1C163.5,160.6,163.7,160.6,163.9,160.6z"/>
	<path class="st5" d="M185.1,160.7c-0.2,0-0.4,0.1-0.6-0.1C184.7,160.6,184.9,160.6,185.1,160.7z"/>
	<path class="st5" d="M162.7,160.7c-0.2,0.1-0.4,0.1-0.6,0.1C162.2,160.7,162.4,160.7,162.7,160.7z"/>
	<path class="st5" d="M186.3,160.8c-0.2,0-0.4,0.1-0.6-0.1C185.9,160.7,186.1,160.7,186.3,160.8z"/>
	<path class="st5" d="M161.4,160.9c-0.2,0.1-0.4,0.1-0.6,0.1C161,160.8,161.2,160.8,161.4,160.9z"/>
	<path class="st5" d="M92.2,240.8c0,0.2,0.1,0.4-0.1,0.6C92.1,241.2,92.1,241,92.2,240.8z"/>
	<path class="st5" d="M256.2,241.5c-0.1-0.2-0.1-0.4-0.1-0.6C256.3,241,256.3,241.2,256.2,241.5z"/>
	<path class="st5" d="M92.1,242.1c0,0.2,0.1,0.4-0.1,0.6C92,242.5,92,242.3,92.1,242.1z"/>
	<path class="st5" d="M256.4,242.7c-0.1-0.2-0.1-0.4-0.1-0.6C256.4,242.3,256.4,242.5,256.4,242.7z"/>
	<path class="st5" d="M92,243.3c0,0.2,0.1,0.4-0.1,0.6C91.9,243.7,91.9,243.5,92,243.3z"/>
	<path class="st5" d="M92.5,237.7c0,0.2,0.1,0.4-0.1,0.6C92.4,238.1,92.4,237.9,92.5,237.7z"/>
	<path class="st5" d="M256.5,243.9c-0.1-0.2-0.1-0.4-0.1-0.6C256.5,243.5,256.5,243.7,256.5,243.9z"/>
	<path class="st5" d="M255.8,237.3c-0.1-0.2-0.1-0.4-0.1-0.6C255.8,236.9,255.8,237.1,255.8,237.3z"/>
	<path class="st5" d="M91.8,244.6c0,0.2,0.1,0.4-0.1,0.6C91.8,245,91.7,244.8,91.8,244.6z"/>
	<path class="st5" d="M92.6,236.7c0,0.2,0.1,0.4-0.1,0.6C92.5,237.1,92.5,236.9,92.6,236.7z"/>
	<path class="st5" d="M92.4,238.7c0,0.2,0.1,0.4-0.1,0.6C92.3,239.1,92.3,238.9,92.4,238.7z"/>
	<path class="st5" d="M256,239.3c-0.1-0.2-0.1-0.4-0.1-0.6C256,238.9,256,239.1,256,239.3z"/>
	<path class="st5" d="M92.3,239.7c0,0.2,0,0.4-0.1,0.6C92.2,240.1,92.2,239.9,92.3,239.7z"/>
	<path class="st5" d="M256.1,240.3c-0.1-0.2-0.1-0.4-0.1-0.6C256.2,239.9,256.2,240.1,256.1,240.3z"/>
	<path class="st5" d="M255.9,238.3c-0.1-0.2-0.1-0.4-0.1-0.6C255.9,237.9,255.9,238.1,255.9,238.3z"/>
	<path class="st5" d="M159.2,260.9c0.2,0,0.4-0.1,0.6,0.1C159.6,261,159.4,261,159.2,260.9z"/>
	<path class="st5" d="M188.5,261c0.2-0.1,0.4-0.1,0.6-0.1C188.9,261,188.7,261,188.5,261z"/>
	<path class="st5" d="M160.3,261c0.2,0,0.4,0,0.6,0.1C160.6,261.1,160.4,261.1,160.3,261z"/>
	<path class="st5" d="M187.5,261.1c0.2-0.1,0.4-0.1,0.6-0.1C187.9,261.1,187.7,261.1,187.5,261.1z"/>
	<path class="st5" d="M161.4,261.1c0.2,0,0.4-0.1,0.6,0.1C161.8,261.2,161.6,261.2,161.4,261.1z"/>
	<path class="st5" d="M186.4,261.2c0.2-0.1,0.4-0.1,0.6-0.1C186.8,261.2,186.6,261.2,186.4,261.2z"/>
	<path class="st5" d="M162.4,261.2c0.2,0,0.4,0,0.6,0.1C162.8,261.3,162.6,261.3,162.4,261.2z"/>
	<path class="st5" d="M256.6,245.2c-0.1-0.2-0.1-0.4-0.1-0.6C256.6,244.8,256.6,245,256.6,245.2z"/>
	<path class="st4" d="M150.2,152.8c-0.2,0.1-0.4,0.1-0.6,0.1C149.8,152.8,150,152.8,150.2,152.8z"/>
	<path class="st4" d="M151.3,152.7c-0.2,0.1-0.4,0.1-0.6,0.1C150.8,152.7,151,152.7,151.3,152.7z"/>
	<path class="st5" d="M135.9,272.7c0.2,0,0.4,0,0.6,0.1C136.3,272.8,136.1,272.8,135.9,272.7z"/>
	<path class="st5" d="M211.9,272.8c0.2-0.1,0.4-0.1,0.6-0.1C212.3,272.8,212.1,272.8,211.9,272.8z"/>
	<path class="st5" d="M137,272.9c0.2,0,0.4,0,0.6,0.1C137.4,273,137.2,273,137,272.9z"/>
	<path class="st5" d="M210.8,272.9c0.2-0.1,0.4-0.1,0.6-0.1C211.2,273,211,273,210.8,272.9z"/>
	<path class="st5" d="M187.6,160.9c-0.2,0-0.4,0.1-0.6-0.1C187.1,160.8,187.4,160.8,187.6,160.9z"/>
	<path class="st5" d="M185.4,261.3c0.2-0.1,0.4-0.1,0.6-0.1C185.8,261.3,185.6,261.3,185.4,261.3z"/>
	<path class="st7" d="M150.6,235.5c-0.6,0-1.2,0-1.8,0c-0.2-0.1-0.5,0-0.7-0.1c-2.4-0.3-4.5-1.3-6.4-2.9c-1.3-1.1-2.3-2.5-3.2-3.9
		c-0.8-1.5-1.4-3.1-1.7-4.8c-0.1-0.8-0.2-1.7-0.3-2.5c-0.1-0.6-0.1-1.1,0-1.7c0.1-1.7,0.3-3.3,0.9-4.9c0.8-2.2,2-4.1,3.6-5.7
		c2-2,4.5-3.1,7.3-3.5c0.3-0.1,0.7,0,1.1-0.1c0.2,0,0.3,0,0.5,0c0.4,0.1,0.7,0,1.1,0.1c1.3,0.2,2.5,0.5,3.7,1.1
		c2.7,1.3,4.7,3.3,6.1,5.9c1.1,1.9,1.7,4,2,6.2c0.1,0.2,0,0.4,0.1,0.6c0,0.8,0,1.6,0,2.5c-0.1,0.2,0,0.4-0.1,0.6
		c-0.3,2.3-1,4.5-2.2,6.6c-1.4,2.4-3.4,4.3-5.9,5.5c-1.1,0.5-2.3,0.8-3.5,1C151.1,235.5,150.8,235.4,150.6,235.5z"/>
	<path class="st7" d="M199.9,205.4c1.4,0.2,2.7,0.6,4,1.2c3.1,1.6,5.3,4.1,6.6,7.4c0.8,1.8,1.1,3.6,1.3,5.6c0.1,0.6,0.1,1.1,0,1.7
		c-0.2,3.1-1.1,6.1-2.9,8.6c-1.5,2.1-3.4,3.7-5.9,4.7c-0.9,0.4-1.8,0.5-2.7,0.8c-0.2,0.1-0.5,0-0.7,0.1c-0.6,0-1.2,0-1.8,0
		c-0.2-0.1-0.4,0-0.6-0.1c-2.1-0.2-4-1.1-5.7-2.3c-1.4-1-2.5-2.3-3.4-3.8c-1.1-1.8-1.9-3.7-2.2-5.8c-0.1-0.4,0-0.8-0.1-1.2
		c-0.1-0.2,0-0.4-0.1-0.6c0-0.8,0-1.6,0-2.5c0.1-0.2,0-0.4,0.1-0.6c0.1-1.8,0.6-3.4,1.3-5c0.6-1.3,1.3-2.4,2.2-3.5
		c1.2-1.4,2.6-2.5,4.1-3.3c1.3-0.7,2.6-1,4.1-1.2c0.4-0.1,0.7,0,1.1-0.1c0.2,0,0.3,0,0.5,0C199.2,205.5,199.6,205.3,199.9,205.4z"/>
	<path class="st5" d="M211.8,221.2c0-0.6,0-1.1,0-1.7C211.9,220.1,211.9,220.7,211.8,221.2z"/>
	<path class="st5" d="M136.6,219.6c0,0.6,0,1.1,0,1.7C136.4,220.7,136.4,220.1,136.6,219.6z"/>
	<path class="st5" d="M151,205.4c-0.4,0-0.7,0-1.1-0.1C150.3,205.4,150.7,205.2,151,205.4z"/>
	<path class="st5" d="M198.4,205.3c-0.4,0.1-0.7,0.1-1.1,0.1C197.7,205.2,198,205.4,198.4,205.3z"/>
	<path class="st5" d="M149.5,205.3c-0.3,0.1-0.7,0.1-1.1,0.1C148.8,205.2,149.1,205.4,149.5,205.3z"/>
	<path class="st5" d="M199.9,205.4c-0.4,0-0.7,0-1.1-0.1C199.2,205.4,199.6,205.2,199.9,205.4z"/>
	<path class="st5" d="M199.5,235.5c0.2-0.1,0.5-0.1,0.7-0.1C200,235.5,199.8,235.5,199.5,235.5z"/>
	<path class="st5" d="M148.1,235.4c0.2,0,0.5,0,0.7,0.1C148.6,235.5,148.3,235.5,148.1,235.4z"/>
	<path class="st5" d="M197.1,235.4c0.2,0,0.4,0,0.6,0.1C197.5,235.5,197.3,235.5,197.1,235.4z"/>
	<path class="st5" d="M150.6,235.5c0.2-0.1,0.4-0.1,0.6-0.1C151.1,235.5,150.8,235.5,150.6,235.5z"/>
	<path class="st5" d="M185.6,218.5c0,0.2,0,0.4-0.1,0.6C185.5,219,185.4,218.7,185.6,218.5z"/>
	<path class="st5" d="M185.5,221.6c0,0.2,0.1,0.4,0.1,0.6C185.4,222.1,185.5,221.9,185.5,221.6z"/>
	<path class="st5" d="M162.8,222.3c0-0.2,0.1-0.4,0.1-0.6C162.9,221.9,162.9,222.1,162.8,222.3z"/>
	<path class="st5" d="M162.9,219.2c-0.1-0.2-0.1-0.4-0.1-0.6C162.9,218.7,162.9,219,162.9,219.2z"/>
</g>
</svg>
