<?xml version="1.0" encoding="utf-8"?>
<!-- Generator: Adobe Illustrator 23.0.1, SVG Export Plug-In . SVG Version: 6.00 Build 0)  -->
<svg version="1.1" id="Layer_1" xmlns="http://www.w3.org/2000/svg" xmlns:xlink="http://www.w3.org/1999/xlink" x="0px" y="0px"
	 viewBox="0 0 245 240" style="enable-background:new 0 0 245 240;" xml:space="preserve">
<style type="text/css">
	.st0{fill:#66767F;}
	.st1{fill:#CDD7DE;}
	.st2{fill:#DE3045;}
	.st3{fill:#2A2F33;}
	.st4{fill:#8D97CC;}
	.st5{fill:#8B98CB;}
	.st6{fill:#161824;}
	.st7{fill:#CED7DC;}
</style>
<path class="st0" d="M193.4,27.1h13.2v6.6h-13.2V27.1z"/>
<path class="st1" d="M16.4,79.9v132c0,14.6,11.8,26.4,26.4,26.4h158.5c14.6,0,26.4-11.8,26.4-26.4v-132H16.4z"/>
<path class="st2" d="M201.3,27.1H42.8c-14.6,0-26.4,11.8-26.4,26.4v33h211.3v-33C227.7,38.9,215.8,27.1,201.3,27.1z"/>
<path class="st3" d="M61.5,58.3c-4.6,0-8.4-4.4-8.4-9.8c0-5.4,3.8-9.8,8.4-9.8c4.6,0,8.4,4.4,8.4,9.8S66.2,58.3,61.5,58.3z
	 M101.1,58.3c-4.6,0-8.4-4.4-8.4-9.8c0-5.4,3.8-9.8,8.4-9.8c4.6,0,8.4,4.4,8.4,9.8S105.8,58.3,101.1,58.3z M140.8,58.3
	c-4.6,0-8.4-4.4-8.4-9.8c0-5.4,3.8-9.8,8.4-9.8c4.6,0,8.4,4.4,8.4,9.8C149.1,53.9,145.4,58.3,140.8,58.3z M180.4,58.3
	c-4.6,0-8.4-4.4-8.4-9.8c0-5.4,3.8-9.8,8.4-9.8c4.6,0,8.4,4.4,8.4,9.8C188.8,53.9,185,58.3,180.4,58.3z"/>
<path class="st0" d="M183.5,1.9c-8.4,0-15.7,5.3-19.8,13c-4-7.5-11.3-13-19.8-13c-8.4,0-15.7,5.3-19.8,13c-4-7.5-11.3-13-19.8-13
	c-8.4,0-15.7,5.3-19.8,13c-4-7.5-11.3-13-19.8-13c-12.8,0-23.1,12-23.1,26.4c0,12.2,6.9,22.3,17,25.9c5,1.8,8.1-3,7.7-6.8
	c-0.4-3.2-2.5-5.2-4.8-6.7c-3.2-2-6.6-6.7-6.6-12.4c0-7.3,4.4-13.8,9.9-13.8s9.9,6,9.9,12.6h6.7c0,0.4-0.1,0.8-0.1,1.2
	c0,12.2,6.9,22.3,17,25.9c5,1.8,8.1-3,7.7-6.8c-0.4-3.2-2.5-5.2-4.8-6.7c-3.2-2-6.6-6.7-6.6-12.4c0-7.3,4.4-13.8,9.9-13.8
	c5.5,0,9.9,6,9.9,12.6h6.7c0,0.4-0.1,0.8-0.1,1.2c0,12.2,6.9,22.3,17,25.9c5,1.8,8.1-3,7.7-6.8c-0.4-3.2-2.5-5.2-4.8-6.7
	c-3.2-2-6.6-6.7-6.6-12.4c0-7.3,4.4-13.8,9.9-13.8c5.5,0,9.9,6,9.9,12.6h6.7c0,0.4-0.1,0.8-0.1,1.2c0,12.2,6.9,22.3,17,25.9
	c5,1.8,8.1-3,7.7-6.8c-0.4-3.2-2.5-5.2-4.8-6.7c-3.2-2-6.6-6.7-6.6-12.4c0-7.3,4.4-13.8,9.9-13.8c5.5,0,9.9,6,9.9,12.6h13.2
	C206.5,13.9,196.2,1.9,183.5,1.9z"/>
<g>
	<path class="st4" d="M174.1,193.2c-1.6,1-3.3,1.9-4.9,2.8c-5.6,3-11.5,5.3-17.6,7c-3.9,1.1-7.9,1.9-12,2.6c-1,0.2-2,0.4-3,0.4
		c-0.2,0.1-0.4,0-0.6,0.1c-0.1,0-0.3,0-0.4,0c-0.2,0.1-0.4,0-0.6,0.1c-0.2,0-0.3,0-0.5,0c-0.2,0.1-0.4,0-0.6,0.1c-0.1,0-0.3,0-0.4,0
		c-0.2,0.1-0.4,0-0.6,0.1c-0.2,0-0.3,0-0.5,0c-0.3,0.1-0.6,0-1,0.1c-0.3,0-0.6,0-0.8,0c-0.3,0.1-0.6,0-1,0.1c-0.3,0-0.6,0-0.9,0
		c-0.3,0.1-0.6,0-1,0.1c-0.5,0-0.9,0.1-1.4,0c-0.7,0.1-1.4,0-2.2,0.1c-0.2,0-0.4,0-0.6,0c-1.3,0.1-2.6,0.1-3.8,0
		c-0.7-0.1-1.4,0-2.2,0c-0.2,0-0.4,0-0.6,0c-0.5,0.1-0.9,0-1.4,0c-0.3-0.1-0.6,0-1-0.1c-0.3,0-0.6,0-0.9,0c-0.3-0.1-0.6,0-1-0.1
		c-0.3,0-0.6,0-0.8,0c-0.3-0.1-0.6,0-1-0.1c-0.2,0-0.3,0-0.5,0c-0.2-0.1-0.4,0-0.6-0.1c-0.1,0-0.3,0-0.4,0c-0.2-0.1-0.4,0-0.6-0.1
		c-0.2,0-0.3,0-0.5,0c-0.2-0.1-0.4,0-0.6-0.1c-0.1,0-0.3,0-0.4,0c-0.2-0.1-0.4,0-0.6-0.1c-1.3,0-2.6-0.3-3.8-0.5
		c-3.4-0.5-6.8-1.2-10.2-2.1c-4.5-1.2-8.9-2.7-13.1-4.6c-5.1-2.2-9.9-4.9-14.5-8c-1-0.7-2-1.4-3-2.1c-0.1,0.1-0.1,0.2,0,0.3
		c0.9,1.2,2,2.2,3.1,3.3c1.3,1.3,2.7,2.6,4.1,3.8c2.6,2.2,5.4,4.3,8.3,6.1c1.7,1.1,3.5,2.1,5.3,3.1c2.4,1.3,4.8,2.3,7.3,3.4
		c1.1,0.5,2.2,0.9,3.3,1.2c0.4,0.1,0.4,0.2,0.2,0.5c-0.8,1-1.6,2.1-2.4,3.1c-1.1,1.4-2.2,2.8-3.2,4.3c-0.4,0.6-0.8,0.3-1.3,0.4
		c-0.3-0.1-0.6,0-0.9-0.1c-0.3,0-0.5,0-0.8,0c-0.2-0.1-0.4,0-0.6-0.1c-0.2,0-0.4,0-0.5,0c-0.2-0.1-0.4,0-0.6-0.1
		c-1.7-0.1-3.4-0.4-5.1-0.7c-4.3-0.8-8.5-1.9-12.5-3.4c-5.9-2.1-11.4-5-16.5-8.6c-1.9-1.4-3.8-2.9-5.6-4.5c-1.6-1.4-3-3-4.5-4.5
		c-0.3-0.3-0.4-0.6-0.3-1c0.1-0.3,0-0.6,0.1-0.8c0-0.3,0-0.5,0-0.8c0.1-0.3,0-0.6,0.1-0.8c0-0.2,0-0.5,0-0.7c0.1-0.3,0-0.6,0.1-0.8
		c0-0.2,0-0.5,0-0.7c0.1-0.2,0-0.4,0.1-0.6c0-0.2,0-0.4,0-0.6c0.1-0.2,0-0.4,0.1-0.6c0-0.2,0-0.4,0-0.6c0.1-0.2,0-0.4,0.1-0.6
		c0-0.2,0-0.4,0-0.6c0.1-0.2,0-0.4,0.1-0.6c0-0.2,0-0.3,0-0.5c0.1-0.2,0-0.4,0.1-0.6c0-0.1,0-0.3,0-0.4c0.1-0.2,0-0.4,0.1-0.6
		c0-0.1,0-0.3,0-0.4c0.1-0.2,0-0.4,0.1-0.6c0-0.1,0-0.3,0-0.4c0.1-0.2,0-0.4,0.1-0.6c0-1.2,0.3-2.3,0.4-3.5c0.2-1.5,0.4-2.9,0.6-4.4
		c0.3-1.7,0.5-3.5,0.8-5.2c0.5-2.6,1-5.2,1.5-7.8c0.7-3.3,1.5-6.5,2.3-9.8c0.5-1.8,1-3.7,1.5-5.5c0.2-0.1,0.3-0.3,0.2-0.6
		c0.2-0.9,0.5-1.8,0.8-2.7c0.3-0.2,0.5-0.5,0.3-0.9c0.2-0.9,0.5-1.8,0.9-2.6c0.3-0.1,0.2-0.3,0.2-0.5c1.3-3.8,2.7-7.6,4.3-11.2
		c0.3-0.7,0.6-1.5,1-2.2c0.4-0.1,0.2-0.4,0.3-0.6c0.3-0.6,0.5-1.2,0.8-1.8c0.4-0.1,0.2-0.4,0.3-0.6c0.4-1,0.9-2,1.5-2.9
		c0.2-0.1,0.4-0.3,0.3-0.6c0.1-0.3,0.3-0.6,0.5-0.9c0.2-0.1,0.4-0.3,0.3-0.6c0.1-0.2,0.2-0.3,0.3-0.5c0.2-0.1,0.4-0.3,0.3-0.6
		c0-0.1,0.1-0.2,0.2-0.2c0.4-0.3,0.6-0.7,0.7-1.1c0.1-0.3,0.3-0.6,0.6-0.9c0.3-0.1,0.4-0.3,0.4-0.6c0.4-0.6,1.1-1,1.7-1.4
		c0.3,0,0.5-0.2,0.6-0.4c0.2-0.1,0.4-0.2,0.6-0.4c0.3,0,0.4-0.1,0.6-0.3c0.4-0.4,0.9-0.7,1.3-0.9c0.3,0,0.5-0.1,0.6-0.4
		c0.3-0.2,0.6-0.4,0.9-0.6c0.3,0.1,0.5-0.1,0.6-0.3c0.3-0.1,0.5-0.4,0.8-0.5c0.3,0.1,0.5-0.1,0.6-0.3c0-0.1,0.2-0.1,0.2-0.1
		c0.3,0,0.5-0.1,0.6-0.4c0.2-0.2,0.4-0.3,0.7-0.3c0.3,0,0.5-0.1,0.6-0.4c1.4-0.7,2.9-1.5,4.3-2.2c1.4-0.7,2.9-1.3,4.4-1.9
		c0.3,0.1,0.4,0,0.6-0.2c0.5-0.2,1.1-0.4,1.6-0.6c0.3,0.1,0.4,0,0.6-0.2c0.3-0.1,0.7-0.2,1-0.3c0.3,0.1,0.4,0,0.6-0.2
		c2.3-0.7,4.5-1.4,6.8-1.9c0.7-0.2,1.4-0.4,2.2-0.4c0.2-0.1,0.5,0.2,0.7-0.1c0.6-0.3,1.3-0.2,2-0.3c0.3,0,0.6-0.2,0.9-0.1
		c0.2-0.1,0.4,0,0.6-0.1c0.1,0,0.3,0,0.4,0c0.2-0.1,0.4,0,0.6-0.1c0.3-0.1,0.4,0.1,0.5,0.3c0.5,0.9,0.9,1.9,1.4,2.8
		c0.2,0.4,0.2,0.7-0.3,0.7c-0.1,0-0.3,0.1-0.4,0.1c-0.3-0.2-0.5,0.1-0.8,0.2c-1,0.3-2,0.5-3,0.8c-0.3-0.1-0.5,0.1-0.7,0.2
		c-1,0.3-2,0.6-2.9,0.9c-0.3-0.1-0.4,0-0.6,0.2c-0.1,0-0.3,0.1-0.4,0.1c-0.2,0.2-0.6-0.1-0.8,0.3c-0.2,0.1-0.3,0.2-0.6,0.2
		c-0.2,0.1-0.6-0.1-0.7,0.3c-0.2,0.1-0.3,0.3-0.5,0.2c-0.2,0-0.4-0.1-0.5,0.2c-2.2,1-4.4,1.9-6.5,3.1c-0.7,0.4-1.4,0.7-2.1,1.1
		c-0.3-0.1-0.4,0.1-0.6,0.3c-0.8,0.5-1.6,1-2.4,1.5c-0.3,0-0.4,0.1-0.6,0.4c-0.2,0.2-0.5,0.4-0.8,0.4c-0.2,0.1-0.5,0.2-0.6,0.5
		c-0.3,0.2-0.5,0.5-0.9,0.6c-0.2,0.1-0.5,0.2-0.6,0.5c-1.3,1-2.6,2-3.8,2.9c-0.2,0.1-0.5,0.2-0.6,0.5c-0.6,0.5-1.1,1-1.7,1.5
		c-0.2,0.1-0.5,0.2-0.6,0.5c-0.3,0.5-1,0.7-1.2,1.3c0.6-0.3,1.2-0.5,1.8-0.8c0.9-0.2,1.7-0.6,2.4-1.2c0.4-0.3,0.8-0.5,1.3-0.6
		c0.4,0.1,0.6,0,0.8-0.3c1.6-0.9,3.3-1.6,5-2.4c0.3,0.1,0.4,0,0.6-0.2c1.5-0.6,2.9-1.3,4.4-1.9c2.4-0.9,4.8-1.8,7.2-2.6
		c0.1,0,0.1,0,0.2,0c0.2,0.1,0.4,0.1,0.5-0.2c2.6-0.9,5.2-1.5,7.9-2.1c2.4-0.5,4.8-1,7.3-1.3c1.1-0.2,2.3-0.3,3.4-0.4
		c0.2-0.1,0.4,0,0.6-0.1c0.2,0,0.4,0,0.6,0c0.2-0.1,0.4,0,0.6-0.1c0.2,0,0.4,0,0.6,0c0.2-0.1,0.4,0,0.6-0.1c0.2,0,0.4,0,0.6,0
		c0.3-0.1,0.6,0,0.9-0.1c0.3,0,0.6,0,1,0c0.4-0.1,0.7,0,1.1-0.1c0.4,0,0.7,0,1.1,0c0.4-0.1,0.9,0,1.3-0.1c1.1,0,2.2-0.1,3.3,0
		c0.7-0.1,1.4-0.1,2.2,0c1.1-0.1,2.2,0,3.3,0c0.4,0.1,0.9,0,1.3,0.1c0.4,0,0.7,0,1.1,0c0.4,0.1,0.7,0,1.1,0.1c0.3,0,0.6,0,1,0
		c0.3,0.1,0.6,0,0.9,0.1c0.2,0,0.4,0,0.6,0c0.2,0.1,0.4,0,0.6,0.1c0.2,0,0.4,0,0.6,0c0.2,0.1,0.4,0,0.6,0.1c0.2,0,0.4,0,0.6,0
		c0.2,0.1,0.4,0,0.6,0.1c0.8,0.1,1.5,0.2,2.3,0.3c0.6,0.1,1.2,0.2,1.8,0.2c0.8,0.1,1.6,0.3,2.4,0.4c1.1,0.2,2.2,0.4,3.3,0.6
		c2.6,0.5,5.2,1.2,7.7,1.9c1.6,0.5,3.2,1,4.8,1.6c2.1,0.8,4.2,1.6,6.3,2.5c2.4,1,4.7,2.1,7.1,3.2c2.2,1,4.4,2.1,6.5,3.3
		c0.1,0,0.2,0.2,0.4,0.1c-0.3-0.6-0.9-0.9-1.4-1.3c-2-1.8-4.1-3.5-6.3-5.1c-4.6-3.4-9.5-6.1-14.7-8.2c-4-1.6-8-2.8-12.2-3.9
		c-0.7-0.2-0.7-0.2-0.4-0.8c0.4-0.8,0.8-1.6,1.2-2.4c0.2-0.5,0.5-0.6,1-0.6c2.9,0.3,5.8,0.8,8.7,1.5c3.4,0.8,6.7,1.9,9.9,3.3
		c2.8,1.2,5.5,2.5,8.2,3.9c2.5,1.3,4.9,2.8,7.2,4.3c1,0.6,1.9,1.3,2.8,2c0.5,0.4,0.8,1.1,1.1,1.6c1.5,2.5,2.8,4.9,4,7.5
		c0.9,2,1.8,3.9,2.7,5.9c1,2.5,2.1,5,2.9,7.5c0.7,2.1,1.5,4.1,2.2,6.2c1.1,3.4,2.1,6.8,3,10.2c0.6,2.3,1.2,4.7,1.7,7
		c0.4,1.9,0.8,3.8,1.2,5.8c0.3,1.8,0.7,3.5,1,5.3c0.2,1,0.3,2.1,0.5,3.1c0.2,1.1,0.3,2.2,0.5,3.3c0.2,0.7,0.2,1.5,0.2,2.2
		c0.1,0.7,0.2,1.4,0.3,2c0.1,0.5,0.1,0.9,0.1,1.4c0.1,0.2,0,0.4,0.1,0.6c0,0.1,0,0.3,0,0.4c0.1,0.2,0,0.4,0.1,0.6c0,0.1,0,0.3,0,0.4
		c0.1,0.2,0,0.4,0.1,0.6c0,0.1,0,0.3,0,0.4c0.1,0.2,0,0.4,0.1,0.6c0,0.2,0,0.3,0,0.5c0.1,0.2,0,0.4,0.1,0.6c0,0.2,0,0.4,0,0.6
		c0.1,0.2,0,0.4,0.1,0.6c0,0.2,0,0.4,0,0.6c0.1,0.2,0,0.4,0.1,0.6c0,0.2,0,0.4,0,0.6c0.1,0.2,0,0.4,0.1,0.6c0,0.2,0,0.5,0,0.7
		c0.1,0.3,0,0.6,0.1,0.8c0,0.2,0,0.5,0,0.7c0.1,0.3,0,0.6,0.1,0.8c0,0.2,0,0.5,0,0.7c0.1,0.3,0,0.6,0.1,0.8c0.1,0.4,0,0.7-0.3,1
		c-1.1,1.2-2.3,2.4-3.5,3.5c-1.5,1.5-3.1,2.8-4.7,4.1c-2.9,2.3-6,4.3-9.2,6c-5.2,2.8-10.7,4.9-16.5,6.4c-3.2,0.8-6.4,1.4-9.7,1.9
		c-0.2,0-0.4,0-0.6,0c-0.2,0.1-0.4,0-0.6,0.1c-0.2,0-0.3,0-0.5,0c-0.2,0.1-0.4,0-0.6,0.1c-0.2,0-0.5,0-0.7,0c-0.3,0.1-0.6,0-0.9,0.1
		c-0.7,0.2-1.2-0.1-1.7-0.7c-1.8-2.5-3.7-4.9-5.5-7.4c12.4-4.4,23.1-11.3,31.8-21.2"/>
	<path class="st4" d="M69.7,118c0,0,0,0.1,0,0.1c-0.2,0.6-1.8,1.4-2.4,1.1C68.1,118.7,68.9,118.4,69.7,118z"/>
	<path class="st4" d="M60.4,114.4c0.2,0.4-0.2,1-0.7,1.1C59.9,115.1,60.2,114.8,60.4,114.4z"/>
	<path class="st5" d="M123.6,206.8c0.9-0.2,1.8-0.1,2.8-0.1C125.4,206.8,124.5,206.8,123.6,206.8z"/>
	<path class="st5" d="M117,206.7c0.9,0,1.9-0.1,2.8,0.1C118.8,206.8,117.9,206.8,117,206.7z"/>
	<path class="st4" d="M48.7,141.3c0.3,0.5,0.2,0.7-0.3,0.9C48.5,141.9,48.6,141.6,48.7,141.3z"/>
	<path class="st4" d="M71.8,117c-0.2,0.6-0.3,0.7-0.8,0.3C71.2,117.2,71.5,117.1,71.8,117z"/>
	<path class="st5" d="M122.8,105.3c-0.7,0-1.4,0-2.2,0C121.3,105.2,122,105.2,122.8,105.3z"/>
	<path class="st4" d="M63.6,111.2c0,0.4-0.1,0.7-0.6,0.4C63.2,111.4,63.4,111.3,63.6,111.2z"/>
	<path class="st4" d="M99.1,101.8c0.2-0.1,0.4-0.7,0.8-0.2C99.6,101.7,99.4,101.7,99.1,101.8z"/>
	<path class="st4" d="M69.5,107.5c0,0.4-0.1,0.6-0.6,0.3C69.1,107.7,69.3,107.6,69.5,107.5z"/>
	<path class="st4" d="M68.1,108.3c0,0.4-0.1,0.6-0.6,0.3C67.7,108.4,67.9,108.3,68.1,108.3z"/>
	<path class="st4" d="M66.7,109.2c0,0.4-0.1,0.6-0.6,0.4C66.2,109.3,66.5,109.3,66.7,109.2z"/>
	<path class="st4" d="M59.6,115.8c0.3,0.4,0.3,0.5-0.3,0.6C59.4,116.1,59.5,116,59.6,115.8z"/>
	<path class="st4" d="M64.8,110.5c0,0.4-0.2,0.6-0.6,0.3C64.3,110.6,64.5,110.5,64.8,110.5z"/>
	<path class="st4" d="M95.4,102.8c0.2-0.3,0.3-0.7,0.7-0.2C95.8,102.7,95.6,102.7,95.4,102.8z"/>
	<path class="st4" d="M59,116.8c0.3,0.4,0.3,0.5-0.3,0.6C58.8,117.2,58.9,117,59,116.8z"/>
	<path class="st4" d="M58.2,118.3c0.3,0.4,0.3,0.4-0.3,0.6C58,118.6,58.1,118.4,58.2,118.3z"/>
	<path class="st4" d="M61.3,112.9c0.3,0.4,0,0.6-0.4,0.6C61.1,113.3,61.2,113.1,61.3,112.9z"/>
	<path class="st4" d="M71.5,106.4c0,0.4-0.1,0.6-0.6,0.4C71.1,106.5,71.3,106.4,71.5,106.4z"/>
	<path class="st4" d="M70.3,107c0,0.4-0.1,0.6-0.6,0.4C69.8,107.2,70.1,107.1,70.3,107z"/>
	<path class="st4" d="M94.2,98.4c-0.1,0.6-0.4,0.3-0.7,0.1C93.8,98.4,94,98.4,94.2,98.4z"/>
	<path class="st4" d="M90.6,104.3c0.1-0.6,0.5-0.2,0.8-0.3C91.2,104.2,90.9,104.3,90.6,104.3z"/>
	<path class="st4" d="M56.5,121.7c0,0.2,0.4,0.7-0.3,0.6C56.3,122.1,56.3,121.9,56.5,121.7z"/>
	<path class="st4" d="M55.4,124.1c0,0.2,0.4,0.7-0.3,0.6C55.2,124.5,55.2,124.3,55.4,124.1z"/>
	<path class="st4" d="M77.3,114.4c0,0.4-0.2,0.6-0.6,0.2C76.9,114.6,77.1,114.5,77.3,114.4z"/>
	<path class="st4" d="M84.5,100.8c-0.1,0.4-0.2,0.6-0.6,0.2C84.1,100.8,84.3,100.8,84.5,100.8z"/>
	<path class="st4" d="M82.9,101.3c-0.1,0.4-0.2,0.6-0.6,0.2C82.5,101.4,82.7,101.4,82.9,101.3z"/>
	<path class="st4" d="M80.8,102.1c-0.1,0.4-0.2,0.6-0.6,0.2C80.4,102.2,80.6,102.2,80.8,102.1z"/>
	<path class="st4" d="M91.9,103.9c0.1-0.4,0.2-0.6,0.6-0.2C92.2,103.8,92.1,103.8,91.9,103.9z"/>
	<path class="st4" d="M49.8,138.1c0.1,0.2,0.3,0.3,0.1,0.5c-0.1,0.1-0.2,0.1-0.3,0C49.7,138.5,49.7,138.3,49.8,138.1z"/>
	<path class="st4" d="M47.6,144.9c0.4,0.4,0.2,0.5-0.2,0.6C47.5,145.3,47.5,145.1,47.6,144.9z"/>
	<path class="st4" d="M79.2,109.7c0-0.4,0.2-0.6,0.6-0.3C79.6,109.4,79.4,109.6,79.2,109.7z"/>
	<path class="st4" d="M89.4,104.8c0-0.5,0.4-0.3,0.7-0.3C89.9,104.7,89.6,104.7,89.4,104.8z"/>
	<path class="st4" d="M76.3,111.5c0-0.4,0.2-0.6,0.6-0.4C76.7,111.3,76.5,111.4,76.3,111.5z"/>
	<path class="st4" d="M89.7,109.7c-0.1,0.4-0.3,0.5-0.5,0.2C89.3,109.7,89.5,109.8,89.7,109.7z"/>
	<path class="st4" d="M73.5,113.4c0-0.4,0.2-0.5,0.6-0.5C73.9,113.2,73.7,113.3,73.5,113.4z"/>
	<path class="st4" d="M74.9,112.4c0-0.4,0.2-0.5,0.6-0.5C75.4,112.2,75.2,112.3,74.9,112.4z"/>
	<path class="st4" d="M69.1,116.8c0-0.4,0.2-0.5,0.6-0.5C69.5,116.6,69.3,116.7,69.1,116.8z"/>
	<path class="st4" d="M66.8,118.7c0-0.4,0.2-0.5,0.6-0.5C67.3,118.5,67,118.6,66.8,118.7z"/>
	<path class="st4" d="M88.4,105.2c0-0.6,0.3-0.2,0.5-0.2C88.7,105.1,88.6,105.1,88.4,105.2z"/>
	<path class="st5" d="M117.3,105.3c-0.4,0.2-0.9,0.1-1.3,0.1C116.4,105.2,116.8,105.3,117.3,105.3z"/>
	<path class="st5" d="M127.4,105.4c-0.4,0-0.9,0.1-1.3-0.1C126.5,105.3,127,105.2,127.4,105.4z"/>
	<path class="st5" d="M129.5,105.5c-0.4,0-0.7,0.1-1.1-0.1C128.8,105.4,129.2,105.4,129.5,105.5z"/>
	<path class="st5" d="M114.9,105.4c-0.3,0.2-0.7,0.1-1.1,0.1C114.2,105.4,114.5,105.4,114.9,105.4z"/>
	<path class="st6" d="M62.2,188.6c0,0.1,0,0.2,0,0.3"/>
	<path class="st5" d="M156.6,218.1c0.3-0.2,0.6-0.1,0.9-0.1C157.2,218.1,156.9,218.1,156.6,218.1z"/>
	<path class="st5" d="M111,206.3c0.3,0,0.7-0.1,1,0.1C111.6,206.4,111.3,206.5,111,206.3z"/>
	<path class="st5" d="M131.4,206.4c0.3-0.2,0.6-0.1,1-0.1C132,206.5,131.7,206.4,131.4,206.4z"/>
	<path class="st5" d="M129.6,206.5c0.3-0.2,0.6-0.1,1-0.1C130.2,206.6,129.9,206.6,129.6,206.5z"/>
	<path class="st5" d="M114.6,206.6c0.3,0,0.6-0.1,1,0.1C115.3,206.7,114.9,206.7,114.6,206.6z"/>
	<path class="st5" d="M127.8,206.7c0.3-0.2,0.6-0.1,1-0.1C128.4,206.7,128.1,206.7,127.8,206.7z"/>
	<path class="st5" d="M85.8,218c0.3,0,0.6-0.1,0.9,0.1C86.5,218.1,86.1,218.1,85.8,218z"/>
	<path class="st5" d="M112.8,206.5c0.3,0,0.7-0.1,1,0.1C113.4,206.6,113.1,206.6,112.8,206.5z"/>
	<path class="st5" d="M204.4,194.9c-0.2-0.3-0.1-0.6-0.1-0.8C204.4,194.4,204.4,194.6,204.4,194.9z"/>
	<path class="st5" d="M112.9,105.5c-0.3,0.2-0.6,0.1-0.9,0.1C112.3,105.5,112.6,105.5,112.9,105.5z"/>
	<path class="st5" d="M131.3,105.6c-0.3,0-0.6,0.1-0.9-0.1C130.8,105.5,131.1,105.5,131.3,105.6z"/>
	<path class="st5" d="M39.2,190.9c0,0.3,0.1,0.6-0.1,0.8C39.1,191.5,39.1,191.2,39.2,190.9z"/>
	<path class="st5" d="M204.2,191.8c-0.2-0.3-0.1-0.6-0.1-0.8C204.2,191.2,204.2,191.5,204.2,191.8z"/>
	<path class="st5" d="M39.1,192.5c0,0.3,0.1,0.6-0.1,0.8C39,193.1,39,192.8,39.1,192.5z"/>
	<path class="st5" d="M204.3,193.3c-0.2-0.3-0.1-0.6-0.1-0.8C204.3,192.8,204.3,193.1,204.3,193.3z"/>
	<path class="st5" d="M39,194.1c0,0.3,0.1,0.6-0.1,0.8C38.9,194.6,38.9,194.4,39,194.1z"/>
	<path class="st6" d="M181.5,188.4"/>
	<path class="st5" d="M111.4,105.6c-0.2,0.1-0.4,0.1-0.6,0.1C111,105.6,111.2,105.6,111.4,105.6z"/>
	<path class="st5" d="M132.6,105.7c-0.2,0-0.4,0.1-0.6-0.1C132.2,105.6,132.4,105.6,132.6,105.7z"/>
	<path class="st5" d="M110.2,105.7c-0.2,0.1-0.4,0.1-0.6,0.1C109.7,105.7,109.9,105.7,110.2,105.7z"/>
	<path class="st5" d="M133.8,105.8c-0.2,0-0.4,0.1-0.6-0.1C133.4,105.7,133.6,105.7,133.8,105.8z"/>
	<path class="st5" d="M108.9,105.9c-0.2,0.1-0.4,0.1-0.6,0.1C108.5,105.8,108.7,105.8,108.9,105.9z"/>
	<path class="st5" d="M39.7,185.8c0,0.2,0.1,0.4-0.1,0.6C39.6,186.2,39.6,186,39.7,185.8z"/>
	<path class="st5" d="M203.7,186.5c-0.1-0.2-0.1-0.4-0.1-0.6C203.8,186,203.8,186.2,203.7,186.5z"/>
	<path class="st5" d="M39.6,187.1c0,0.2,0.1,0.4-0.1,0.6C39.5,187.5,39.5,187.3,39.6,187.1z"/>
	<path class="st5" d="M203.9,187.7c-0.1-0.2-0.1-0.4-0.1-0.6C203.9,187.3,203.9,187.5,203.9,187.7z"/>
	<path class="st5" d="M39.5,188.3c0,0.2,0.1,0.4-0.1,0.6C39.4,188.7,39.4,188.5,39.5,188.3z"/>
	<path class="st5" d="M40,182.7c0,0.2,0.1,0.4-0.1,0.6C39.9,183.1,39.9,182.9,40,182.7z"/>
	<path class="st5" d="M204,188.9c-0.1-0.2-0.1-0.4-0.1-0.6C204,188.5,204,188.7,204,188.9z"/>
	<path class="st5" d="M203.3,182.3c-0.1-0.2-0.1-0.4-0.1-0.6C203.3,181.9,203.3,182.1,203.3,182.3z"/>
	<path class="st5" d="M39.3,189.6c0,0.2,0.1,0.4-0.1,0.6C39.3,190,39.2,189.8,39.3,189.6z"/>
	<path class="st5" d="M40.1,181.7c0,0.2,0.1,0.4-0.1,0.6C40,182.1,40,181.9,40.1,181.7z"/>
	<path class="st5" d="M39.9,183.7c0,0.2,0.1,0.4-0.1,0.6C39.8,184.1,39.8,183.9,39.9,183.7z"/>
	<path class="st5" d="M203.5,184.3c-0.1-0.2-0.1-0.4-0.1-0.6C203.5,183.9,203.5,184.1,203.5,184.3z"/>
	<path class="st5" d="M39.8,184.7c0,0.2,0,0.4-0.1,0.6C39.7,185.1,39.7,184.9,39.8,184.7z"/>
	<path class="st5" d="M203.6,185.3c-0.1-0.2-0.1-0.4-0.1-0.6C203.7,184.9,203.7,185.1,203.6,185.3z"/>
	<path class="st5" d="M203.4,183.3c-0.1-0.2-0.1-0.4-0.1-0.6C203.4,182.9,203.4,183.1,203.4,183.3z"/>
	<path class="st5" d="M106.7,205.9c0.2,0,0.4-0.1,0.6,0.1C107.1,206,106.9,206,106.7,205.9z"/>
	<path class="st5" d="M136,206c0.2-0.1,0.4-0.1,0.6-0.1C136.4,206,136.2,206,136,206z"/>
	<path class="st5" d="M107.8,206c0.2,0,0.4,0,0.6,0.1C108.1,206.1,107.9,206.1,107.8,206z"/>
	<path class="st5" d="M135,206.1c0.2-0.1,0.4-0.1,0.6-0.1C135.4,206.1,135.2,206.1,135,206.1z"/>
	<path class="st5" d="M108.9,206.1c0.2,0,0.4-0.1,0.6,0.1C109.3,206.2,109.1,206.2,108.9,206.1z"/>
	<path class="st5" d="M133.9,206.2c0.2-0.1,0.4-0.1,0.6-0.1C134.3,206.2,134.1,206.2,133.9,206.2z"/>
	<path class="st5" d="M109.9,206.2c0.2,0,0.4,0,0.6,0.1C110.3,206.3,110.1,206.3,109.9,206.2z"/>
	<path class="st5" d="M204.1,190.2c-0.1-0.2-0.1-0.4-0.1-0.6C204.1,189.8,204.1,190,204.1,190.2z"/>
	<path class="st4" d="M97.7,97.8c-0.2,0.1-0.4,0.1-0.6,0.1C97.3,97.8,97.5,97.8,97.7,97.8z"/>
	<path class="st4" d="M98.8,97.7c-0.2,0.1-0.4,0.1-0.6,0.1C98.3,97.7,98.5,97.7,98.8,97.7z"/>
	<path class="st5" d="M83.4,217.7c0.2,0,0.4,0,0.6,0.1C83.8,217.8,83.6,217.8,83.4,217.7z"/>
	<path class="st5" d="M159.4,217.8c0.2-0.1,0.4-0.1,0.6-0.1C159.8,217.8,159.6,217.8,159.4,217.8z"/>
	<path class="st5" d="M84.5,217.9c0.2,0,0.4,0,0.6,0.1C84.9,218,84.7,218,84.5,217.9z"/>
	<path class="st5" d="M158.3,217.9c0.2-0.1,0.4-0.1,0.6-0.1C158.7,218,158.5,218,158.3,217.9z"/>
	<path class="st5" d="M135.1,105.9c-0.2,0-0.4,0.1-0.6-0.1C134.6,105.8,134.9,105.8,135.1,105.9z"/>
	<path class="st5" d="M132.9,206.3c0.2-0.1,0.4-0.1,0.6-0.1C133.3,206.3,133.1,206.3,132.9,206.3z"/>
	<path class="st7" d="M98.1,180.5c-0.6,0-1.2,0-1.8,0c-0.2-0.1-0.5,0-0.7-0.1c-2.4-0.3-4.5-1.3-6.4-2.9c-1.3-1.1-2.3-2.5-3.2-3.9
		c-0.8-1.5-1.4-3.1-1.7-4.8c-0.1-0.8-0.2-1.7-0.3-2.5c-0.1-0.6-0.1-1.1,0-1.7c0.1-1.7,0.3-3.3,0.9-4.9c0.8-2.2,2-4.1,3.6-5.7
		c2-2,4.5-3.1,7.3-3.5c0.3-0.1,0.7,0,1.1-0.1c0.2,0,0.3,0,0.5,0c0.4,0.1,0.7,0,1.1,0.1c1.3,0.2,2.5,0.5,3.7,1.1
		c2.7,1.3,4.7,3.3,6.1,5.9c1.1,1.9,1.7,4,2,6.2c0.1,0.2,0,0.4,0.1,0.6c0,0.8,0,1.6,0,2.5c-0.1,0.2,0,0.4-0.1,0.6
		c-0.3,2.3-1,4.5-2.2,6.6c-1.4,2.4-3.4,4.3-5.9,5.5c-1.1,0.5-2.3,0.8-3.5,1C98.6,180.5,98.3,180.4,98.1,180.5z"/>
	<path class="st7" d="M147.4,150.4c1.4,0.2,2.7,0.6,4,1.2c3.1,1.6,5.3,4.1,6.6,7.4c0.8,1.8,1.1,3.6,1.3,5.6c0.1,0.6,0.1,1.1,0,1.7
		c-0.2,3.1-1.1,6.1-2.9,8.6c-1.5,2.1-3.4,3.7-5.9,4.7c-0.9,0.4-1.8,0.5-2.7,0.8c-0.2,0.1-0.5,0-0.7,0.1c-0.6,0-1.2,0-1.8,0
		c-0.2-0.1-0.4,0-0.6-0.1c-2.1-0.2-4-1.1-5.7-2.3c-1.4-1-2.5-2.3-3.4-3.8c-1.1-1.8-1.9-3.7-2.2-5.8c-0.1-0.4,0-0.8-0.1-1.2
		c-0.1-0.2,0-0.4-0.1-0.6c0-0.8,0-1.6,0-2.5c0.1-0.2,0-0.4,0.1-0.6c0.1-1.8,0.6-3.4,1.3-5c0.6-1.3,1.3-2.4,2.2-3.5
		c1.2-1.4,2.6-2.5,4.1-3.3c1.3-0.7,2.6-1,4.1-1.2c0.4-0.1,0.7,0,1.1-0.1c0.2,0,0.3,0,0.5,0C146.7,150.5,147.1,150.3,147.4,150.4z"/>
	<path class="st5" d="M159.3,166.2c0-0.6,0-1.1,0-1.7C159.4,165.1,159.4,165.7,159.3,166.2z"/>
	<path class="st5" d="M84.1,164.6c0,0.6,0,1.1,0,1.7C83.9,165.7,83.9,165.1,84.1,164.6z"/>
	<path class="st5" d="M98.5,150.4c-0.4,0-0.7,0-1.1-0.1C97.8,150.4,98.2,150.2,98.5,150.4z"/>
	<path class="st5" d="M145.9,150.3c-0.4,0.1-0.7,0.1-1.1,0.1C145.2,150.2,145.5,150.4,145.9,150.3z"/>
	<path class="st5" d="M97,150.3c-0.3,0.1-0.7,0.1-1.1,0.1C96.3,150.2,96.6,150.4,97,150.3z"/>
	<path class="st5" d="M147.4,150.4c-0.4,0-0.7,0-1.1-0.1C146.7,150.4,147.1,150.2,147.4,150.4z"/>
	<path class="st5" d="M147,180.5c0.2-0.1,0.5-0.1,0.7-0.1C147.5,180.5,147.3,180.5,147,180.5z"/>
	<path class="st5" d="M95.6,180.4c0.2,0,0.5,0,0.7,0.1C96.1,180.5,95.8,180.5,95.6,180.4z"/>
	<path class="st5" d="M144.6,180.4c0.2,0,0.4,0,0.6,0.1C145,180.5,144.8,180.5,144.6,180.4z"/>
	<path class="st5" d="M98.1,180.5c0.2-0.1,0.4-0.1,0.6-0.1C98.6,180.5,98.3,180.5,98.1,180.5z"/>
	<path class="st5" d="M133.1,163.5c0,0.2,0,0.4-0.1,0.6C133,164,132.9,163.7,133.1,163.5z"/>
	<path class="st5" d="M133,166.6c0,0.2,0.1,0.4,0.1,0.6C132.9,167.1,133,166.9,133,166.6z"/>
	<path class="st5" d="M110.3,167.3c0-0.2,0.1-0.4,0.1-0.6C110.4,166.9,110.4,167.1,110.3,167.3z"/>
	<path class="st5" d="M110.4,164.2c-0.1-0.2-0.1-0.4-0.1-0.6C110.4,163.7,110.4,164,110.4,164.2z"/>
</g>
</svg>
