<?xml version="1.0" encoding="utf-8"?>
<!-- Generator: Adobe Illustrator 23.0.1, SVG Export Plug-In . SVG Version: 6.00 Build 0)  -->
<svg version="1.1" id="Layer_1" xmlns="http://www.w3.org/2000/svg" xmlns:xlink="http://www.w3.org/1999/xlink" x="0px" y="0px"
	 viewBox="0 0 350 350" style="enable-background:new 0 0 350 350;" xml:space="preserve">
<style type="text/css">
	.st0{clip-path:url(#SVGID_2_);fill:#FFFFFF;}
	.st1{clip-path:url(#SVGID_2_);fill:#171818;}
	.st2{clip-path:url(#SVGID_2_);fill:#FAF9F9;}
	.st3{clip-path:url(#SVGID_2_);fill:#F9F8F8;}
	.st4{clip-path:url(#SVGID_2_);fill:#FCFCFC;}
	.st5{clip-path:url(#SVGID_2_);fill:#FAFAF9;}
	.st6{clip-path:url(#SVGID_2_);fill:#F9F9F9;}
	.st7{clip-path:url(#SVGID_2_);fill:#F8F7F7;}
	.st8{clip-path:url(#SVGID_2_);fill:#FDFDFD;}
	.st9{clip-path:url(#SVGID_2_);fill:#F8F8F7;}
	.st10{clip-path:url(#SVGID_2_);fill:#FEFEFE;}
	.st11{clip-path:url(#SVGID_2_);fill:#FBFAFA;}
	.st12{clip-path:url(#SVGID_2_);fill:#F5F5F4;}
	.st13{clip-path:url(#SVGID_2_);fill:#F4F3F3;}
	.st14{clip-path:url(#SVGID_2_);fill:none;}
</style>
<g>
	<defs>
		<rect id="SVGID_1_" width="350" height="350"/>
	</defs>
	<clipPath id="SVGID_2_">
		<use xlink:href="#SVGID_1_"  style="overflow:visible;"/>
	</clipPath>
	<path class="st0" d="M536.71,229.64c0,27.67-0.03,55.35,0.06,83.02c0.01,2.09-0.42,2.51-2.51,2.51
		c-177.25-0.06-354.5-0.06-531.75,0c-2.09,0-2.52-0.42-2.51-2.51c0.09-27.67,0.06-55.35,0.06-83.02c0.34-0.06,0.69-0.17,1.03-0.17
		c26.62-0.01,53.23,0.02,79.85-0.08c2.25-0.01,2.76,1.05,3.09,2.77c0.79,4.11,1.5,8.24,2.44,12.32c2.02,8.82-0.73,15.9-7.91,21.14
		c-7.78,5.68-16.24,6.97-25.85,2.92c3.46-1.27,6.54-1.89,9.11-3.75c5.09-3.66,7.04-9.47,5.06-15.4c-2.06-6.19-7.02-10.03-12.85-9.95
		c-6.15,0.08-11.35,4.12-13.1,10.16c-1.99,6.88,0.64,15.04,6.3,19.47c7.55,5.91,15.97,5.67,24.59,3.27
		c10.19-2.84,17.78-11.75,18.31-21.84c0.29-5.61-1.67-11.01-2.65-16.5c-0.81-4.55-0.94-4.53,3.8-4.53
		c96.89,0.03,193.78,0.08,290.67,0.09c50.2,0.01,100.39-0.06,150.59-0.08C533.92,229.46,535.32,229.58,536.71,229.64z"/>
	<path class="st0" d="M0.06,110.54C0.06,83.1,0.09,55.66,0,28.22c-0.01-2.09,0.42-2.51,2.51-2.51c177.25,0.06,354.5,0.06,531.75,0
		c2.09,0,2.52,0.42,2.51,2.51c-0.09,27.44-0.06,54.88-0.06,82.32c-41.32,0-82.64-0.04-123.96,0.08c-3,0.01-3.64-0.82-3.55-3.66
		c0.22-7.11,0.1-14.24,0.03-21.36c-0.01-0.93,0.86-2.56-1.23-2.59c-1.96-0.03-1.42,1.46-1.42,2.51c-0.03,7.47-0.11,14.94,0.04,22.41
		c0.05,2.23-0.64,2.66-2.74,2.66c-31.16-0.07-62.33-0.07-93.49,0c-2.14,0-2.76-0.52-2.72-2.71c0.15-7.35,0.09-14.71,0.01-22.06
		c-0.01-1,0.98-2.89-1.36-2.78c-1.94,0.09-1.2,1.69-1.21,2.68c-0.06,7-0.23,14.01,0.06,21.01c0.14,3.32-0.97,3.89-4.02,3.88
		c-68.4-0.09-136.8-0.07-205.2-0.07c-0.58,0-1.18-0.07-1.75,0.01c-1.81,0.26-2.08-0.44-1.74-2.13c0.86-4.34,1.33-8.74,1.14-13.19
		c-0.52-12.47-5.29-23.46-11.74-33.86c-4.04-6.52-4.49-6.5-9.33-0.24c-10.51,13.58-13.38,29.4-13.24,46.01
		c0.02,2.67-0.36,3.49-3.2,3.47C37.41,110.47,18.73,110.54,0.06,110.54z"/>
	<path class="st1" d="M0.06,110.54c18.68,0,37.35-0.07,56.03,0.07c2.85,0.02,3.23-0.8,3.2-3.47c-0.14-16.61,2.73-32.43,13.24-46.01
		c4.85-6.26,5.29-6.28,9.33,0.24c6.45,10.4,11.22,21.39,11.74,33.86c0.18,4.45-0.28,8.85-1.14,13.19c-0.33,1.69-0.07,2.39,1.74,2.13
		c0.57-0.08,1.17-0.01,1.75-0.01c68.4,0,136.8-0.02,205.2,0.07c3.05,0,4.16-0.56,4.02-3.88c-0.29-6.99-0.12-14-0.06-21.01
		c0.01-0.99-0.73-2.59,1.21-2.68c2.34-0.1,1.35,1.78,1.36,2.78c0.09,7.35,0.14,14.71-0.01,22.06c-0.04,2.19,0.58,2.71,2.72,2.71
		c31.16-0.07,62.33-0.07,93.49,0c2.1,0,2.78-0.43,2.74-2.66c-0.15-7.47-0.07-14.94-0.04-22.41c0-1.04-0.54-2.53,1.42-2.51
		c2.09,0.03,1.22,1.66,1.23,2.59c0.07,7.12,0.19,14.24-0.03,21.36c-0.09,2.84,0.55,3.67,3.55,3.66
		c41.32-0.11,82.64-0.08,123.96-0.08c0,39.7,0,79.4,0,119.1c-1.39-0.06-2.79-0.18-4.18-0.18c-50.2,0.02-100.39,0.09-150.59,0.08
		c-96.89-0.01-193.78-0.06-290.67-0.09c-4.74,0-4.62-0.02-3.8,4.53c0.98,5.49,2.94,10.89,2.65,16.5c-0.52,10.09-8.12,19-18.31,21.84
		c-8.62,2.41-17.04,2.65-24.59-3.27c-5.66-4.43-8.3-12.58-6.3-19.47c1.75-6.04,6.95-10.08,13.1-10.16
		c5.83-0.08,10.79,3.77,12.85,9.95c1.98,5.93,0.03,11.74-5.06,15.4c-2.58,1.86-5.66,2.48-9.11,3.75c9.62,4.06,18.07,2.76,25.85-2.92
		c7.18-5.24,9.93-12.32,7.91-21.14c-0.93-4.08-1.65-8.21-2.44-12.32c-0.33-1.72-0.84-2.78-3.09-2.77
		c-26.61,0.1-53.23,0.07-79.85,0.08c-0.34,0-0.69,0.11-1.03,0.17c0-0.93,0-1.87,0-2.8c19.13,0,38.25,0,57.38,0
		c-0.95-0.81-1.93-1.11-2.9-1.42c-12.69-4.11-22.9-11.32-29.02-23.49c-0.85-1.69-1.98-1.64-3.39-1.64
		c-7.35-0.01-14.71-0.04-22.06-0.07c0-0.93,0-1.87,0-2.8c7.21,0.06,14.42,0.1,21.64,0.21c1.4,0.02,1.85-0.38,1.49-1.8
		c-1.92-7.55-1.26-14.98,1.26-22.28c0.58-1.69,0.12-2.18-1.68-2.16c-7.57,0.11-15.13,0.08-22.7,0.11c0-0.93,0-1.87,0-2.8
		c7.91-0.01,15.83-0.07,23.74,0.02c1.72,0.02,2.69-0.42,3.45-2.07c3.56-7.77,8.63-14.56,14.22-20.97c0.86-0.99,2.02-1.82,2.5-3.6
		c-14.86,0-29.39,0-43.91,0c0-0.93,0-1.87,0-2.8c1.07,0.71,2.27,0.37,3.41,0.37c10.86,0.03,21.74-0.39,32.57,0.16
		c7.33,0.37,12.64-1.74,18.3-6.66c5.9-5.12,7.91-9.81,5.64-17.09c-0.71-2.3-1.34-2.77-3.53-2.76c-18.8,0.09-37.59,0.05-56.39,0.06
		C0.06,112.41,0.06,111.48,0.06,110.54z M381.18,200.48c-1.5-0.1-2.16-0.18-2.82-0.18c-56.15-0.01-112.3,0.02-168.44-0.08
		c-2.67,0-2.76,1.15-2.69,3.12c0.36,8.89-3.89,15.25-11.12,19.92c-1.68,1.09-3.45,2.04-5.62,3.32c60.74,0,120.86,0,181.16,0
		C364.29,219.22,368.36,209.1,381.18,200.48z M137.58,142.22c-21.36,0-42.72-0.01-64.08,0.01c-4.07,0-5.1,1.39-4.28,5.36
		c1.28,6.15,2.56,12.29,3.73,18.46c0.35,1.86,0.98,2.67,3.13,2.67c41.91-0.08,83.81-0.08,125.72,0c2.43,0,2.85-0.82,2.81-2.98
		c-0.12-6.77-0.18-13.54,0.02-20.31c0.08-2.67-0.72-3.28-3.31-3.27C180.07,142.27,158.82,142.22,137.58,142.22z M394.76,226.76
		c4.94,0,8.78,0,12.62,0c40.87,0,81.73-0.03,122.6,0.07c2.88,0.01,3.78-0.71,3.68-3.63c-0.22-6.65-0.15-13.31-0.02-19.96
		c0.04-2.21-0.47-3-2.88-3c-39.58,0.08-79.16,0.08-118.74,0c-2.49-0.01-2.9,0.92-2.77,3.04c0.23,3.97-0.25,7.87-1.78,11.59
		C405.19,220.34,400.6,223.46,394.76,226.76z M471.39,168.66c19.72,0,39.43-0.04,59.15,0.05c2.4,0.01,3.18-0.55,3.12-3.05
		c-0.18-6.88-0.12-13.77-0.02-20.65c0.03-2.04-0.45-2.85-2.7-2.85c-39.66,0.06-79.33,0.06-118.99,0c-2.21,0-2.75,0.68-2.71,2.79
		c0.12,6.76,0.17,13.54-0.02,20.3c-0.07,2.66,0.54,3.5,3.38,3.48C432.19,168.6,451.79,168.66,471.39,168.66z M471.57,113.34
		c-19.61,0-39.22,0.08-58.83-0.08c-3.01-0.02-3.64,0.84-3.54,3.67c0.22,6.53,0.17,13.07,0.02,19.61c-0.05,2.36,0.5,3.19,3.04,3.18
		c39.45-0.08,78.91-0.08,118.36,0c2.6,0.01,3.06-0.96,3.02-3.25c-0.13-6.65-0.19-13.31,0.03-19.96c0.09-2.66-0.66-3.25-3.26-3.23
		C510.8,113.39,491.18,113.34,471.57,113.34z M471.2,171.42c-19.48,0-38.96,0.07-58.44-0.08c-2.99-0.02-3.65,0.83-3.56,3.67
		c0.22,6.64,0.17,13.3,0.02,19.94c-0.05,2.23,0.69,2.69,2.77,2.69c39.66-0.06,79.32-0.06,118.98,0.01c2.26,0,2.69-0.77,2.66-2.81
		c-0.11-6.76-0.2-13.54,0.03-20.29c0.1-2.76-0.83-3.2-3.32-3.18C510.62,171.46,490.91,171.42,471.2,171.42z M74.53,139.24
		c0.65,0.23,0.86,0.37,1.07,0.37c42.22,0.02,84.45,0.02,126.67,0.07c1.89,0,2.34-0.7,2.32-2.46c-0.08-6.65-0.19-13.3,0.04-19.94
		c0.1-3.04-0.55-4.06-3.88-4.04c-25.31,0.16-50.62,0.09-75.93,0.09c-10.03,0-20.06,0.08-30.09-0.06c-2.51-0.04-3.9,0.37-4.81,3.07
		c-1.75,5.2-4.63,9.88-8.05,14.18C79.58,133.41,77.13,136.17,74.53,139.24z M92.02,171.42c8.76,5.99,13.86,13.69,13.93,24.27
		c0.01,2.03,1,1.92,2.35,1.92c31.27-0.01,62.55-0.03,93.82,0.03c2.08,0,2.5-0.73,2.47-2.63c-0.1-6.77-0.21-13.54,0.04-20.3
		c0.11-2.91-0.93-3.35-3.52-3.35c-35.47,0.08-70.95,0.05-106.42,0.05C93.8,171.42,92.91,171.42,92.02,171.42z M357.08,168.66
		c15.53,0,31.06-0.04,46.59,0.05c2.17,0.01,3.03-0.39,2.97-2.81c-0.17-7-0.1-14.01-0.03-21.02c0.02-1.79-0.23-2.71-2.42-2.71
		c-31.29,0.07-62.58,0.07-93.88,0c-2.33-0.01-2.65,0.92-2.62,2.89c0.1,6.77,0.21,13.55-0.04,20.31c-0.11,2.95,0.98,3.36,3.55,3.34
		C326.49,168.61,341.78,168.66,357.08,168.66z M256.49,142.22c-15.4,0-30.79,0.05-46.19-0.06c-2.44-0.02-3.17,0.65-3.11,3.1
		c0.16,6.88,0.12,13.76,0.02,20.64c-0.03,1.99,0.29,2.82,2.6,2.81c30.91-0.09,61.81-0.09,92.72,0c2.34,0.01,2.62-0.86,2.59-2.83
		c-0.1-6.88-0.15-13.76,0.02-20.64c0.06-2.5-0.77-3.09-3.17-3.08C286.81,142.27,271.65,142.22,256.49,142.22z M356.98,139.66
		c15.52,0,31.04-0.06,46.55,0.06c2.45,0.02,3.15-0.65,3.1-3.1c-0.16-6.88-0.15-13.77,0-20.65c0.05-2.18-0.57-2.69-2.71-2.68
		c-31.15,0.07-62.3,0.08-93.45-0.01c-2.45-0.01-2.82,0.86-2.79,2.99c0.12,6.65,0.18,13.3-0.02,19.95c-0.08,2.76,0.69,3.53,3.48,3.51
		C326.42,139.59,341.7,139.66,356.98,139.66z M256.3,113.34c-15.41,0-30.82,0.05-46.23-0.05c-2.28-0.02-2.93,0.57-2.88,2.87
		c0.16,7,0.13,14.01,0.01,21.01c-0.03,2.02,0.64,2.53,2.59,2.53c30.93-0.05,61.87-0.06,92.8,0c2.04,0,2.56-0.68,2.53-2.62
		c-0.1-6.89-0.2-13.78,0.04-20.66c0.1-2.81-0.91-3.16-3.34-3.14C286.65,113.39,271.47,113.34,256.3,113.34z M181.7,200.29
		c-9.08,0-18.16,0-27.24,0c-15.27,0-30.55-0.01-45.82,0.01c-1.43,0-2.9-0.44-3.52,1.78c-2.59,9.32-9.01,15.49-17.07,20.26
		c-1.19,0.7-3.07,0.93-2.47,3.13c0.57,2.1,2.27,1.25,3.48,1.25c26.58,0.05,53.17,0.04,79.75,0.02c0.61,0,1.39,0.42,1.86-0.39
		c-5.05-5.69-5.1-10.79-0.28-16.77C173.51,205.72,177.54,203.08,181.7,200.29z M382.07,171.42c-24.47,0-48.16,0.02-71.85-0.04
		c-1.98-0.01-2.6,0.55-2.53,2.54c0.28,7.8-2.83,14.09-8.97,18.84c-2.05,1.59-4.3,2.92-6.81,4.61c26.65,0,52.87,0,79.27,0
		C364.64,189.14,368.37,180.04,382.07,171.42z M282.47,171.42c-24.26,0-48.52,0.02-72.78-0.04c-2.03-0.01-2.51,0.62-2.48,2.56
		c0.11,6.88,0.16,13.77-0.02,20.64c-0.06,2.45,0.59,3.1,3.06,3.08c19.36-0.11,38.73-0.06,58.09-0.08c0.63,0,1.37,0.31,1.91-0.34
		c-4.49-5.84-4.31-10.75,0.49-16.59C273.97,176.73,278.09,174.05,282.47,171.42z M33.88,200.29c0.59,4.86,2.73,9.12,8.22,14.27
		c10.43,9.79,22.73,12.51,36.49,8.7c2.35-0.65,3.33-1.84,2.67-4.5c-1.34-5.41-2.35-10.89-3.5-16.34c-0.22-1.02-0.29-2.13-1.77-2.13
		c-6.34,0.01-12.67,0.01-19.26,0.01c1.16,4.99,4.14,8.13,7.61,10.99c-5.95-0.97-10.64-3.79-13.65-9.04
		c-0.69-1.2-1.23-2.03-2.83-1.99C43.21,200.36,38.55,200.29,33.88,200.29z M70.49,110.54c1.75,0,3.5-0.07,5.24,0.02
		c1.28,0.06,2.15-0.33,2.92-1.4c3.12-4.35,6.05-8.8,7.69-13.96c2.37-7.45,2.31-14.58-2.74-21.12c-1.54-1.99-3.26-2.35-5.5-1.58
		c-3.82,1.32-5.96,4.39-7.71,7.68c-3.81,7.16-5.64,14.94-6.5,22.94C63.08,110.53,63.2,110.54,70.49,110.54z M377.4,197.06
		c10.37-2.21,19.3-7.08,26.63-14.81c1.91-2.02,2.66-4.54,1.29-7.07c-1.41-2.61-4.26-3.08-6.75-2.56
		c-10.16,2.14-18.89,7.04-26.05,14.6c-1.78,1.88-2.57,4.2-1.42,6.74C372.3,196.66,374.82,196.81,377.4,197.06z M377.2,225.77
		c10.42-2.05,19.31-6.99,26.7-14.64c2-2.07,2.89-4.67,1.33-7.34c-1.49-2.55-4.32-2.97-6.81-2.42c-10.13,2.22-18.89,7.07-25.99,14.7
		c-1.76,1.89-2.47,4.21-1.26,6.75C372.38,225.35,374.75,225.51,377.2,225.77z M64.47,171.42c-8.15,0-15.25,0.06-22.34-0.04
		c-1.61-0.02-2.2,0.86-2.9,1.98c-3.83,6.12-6.22,12.66-6.5,19.96c-0.11,2.97,0.3,4.92,4.01,4.35c1.94-0.3,3.96-0.03,5.94-0.06
		c1.86-0.03,4.06,0.49,5.47-0.33c1.5-0.88-0.2-3.2,0.39-4.84c0.08-0.22,0.09-0.46,0.12-0.69C49.9,182.36,55.69,176.39,64.47,171.42z
		 M70.55,168.57c-1.56-7.44-3.08-14.71-4.68-22.33c-8.71,6.82-16.83,13.41-23.18,22.33C52.24,168.57,61.21,168.57,70.55,168.57z
		 M66.32,197.61c2.79,0,5.58-0.04,8.37,0.02c1.29,0.03,2.02-0.28,1.7-1.75c-0.91-4.18-1.85-8.36-2.68-12.56
		c-0.2-1-0.52-1.44-1.57-1.26c-6.38,1.13-14.33,5.36-15.54,12.94c-0.31,1.95-0.14,2.77,2.06,2.64
		C61.2,197.49,63.76,197.61,66.32,197.61z M87.74,197.61c2.21,0,4.41,0,6.62,0c1.1,0,1.6-0.19,1.39-1.61
		c-1.07-7.22-7.93-14.11-14.79-14.66c-4.68-0.38-4.68-0.38-3.82,4.05c0.29,1.48,0.55,2.96,0.87,4.43
		C79.74,197.61,79.75,197.61,87.74,197.61z M84.54,220.06c6-4.33,9.98-9.51,11.4-16.48c0.49-2.42-0.03-3.61-2.92-3.37
		c-3.36,0.29-6.77,0.2-10.14,0.02c-2.22-0.12-2.54,0.74-2.11,2.62C82.03,208.41,83.21,213.98,84.54,220.06z M75.1,113.46
		c-12.66-0.55-12.66-0.55-11.05,9.85c0.02,0.15,0.33,0.26,0.69,0.54C68.05,120.53,71.38,117.19,75.1,113.46z M406,188.87
		c-2.39,3.76-5.98,5.91-9.89,8.6c12.97,0.02,10.17,2.09,10.39-7.96C406.5,189.44,406.38,189.36,406,188.87z"/>
	<path class="st2" d="M0.06,113.34c18.8,0,37.59,0.03,56.39-0.06c2.19-0.01,2.81,0.47,3.53,2.76c2.27,7.28,0.26,11.97-5.64,17.09
		c-5.67,4.92-10.97,7.03-18.3,6.66c-10.83-0.55-21.71-0.13-32.57-0.16c-1.14,0-2.34,0.34-3.41-0.37
		C0.06,130.62,0.06,121.98,0.06,113.34z"/>
	<path class="st3" d="M0.06,200.22c7.35,0.02,14.71,0.06,22.06,0.07c1.41,0,2.54-0.05,3.39,1.64c6.12,12.17,16.34,19.38,29.02,23.49
		c0.97,0.32,1.95,0.62,2.9,1.42c-19.13,0-38.25,0-57.38,0C0.06,217.97,0.06,209.09,0.06,200.22z"/>
	<path class="st3" d="M0.06,142.07c14.52,0,29.04,0,43.91,0c-0.48,1.78-1.63,2.61-2.5,3.6c-5.6,6.41-10.66,13.19-14.22,20.97
		c-0.75,1.64-1.72,2.08-3.45,2.07c-7.91-0.08-15.83-0.02-23.74-0.02C0.06,159.82,0.06,150.94,0.06,142.07z"/>
	<path class="st4" d="M0.06,171.49c7.57-0.02,15.14,0,22.7-0.11c1.8-0.03,2.26,0.47,1.68,2.16c-2.52,7.3-3.18,14.73-1.26,22.28
		c0.36,1.42-0.08,1.82-1.49,1.8c-7.21-0.11-14.42-0.14-21.64-0.21C0.06,188.77,0.06,180.13,0.06,171.49z"/>
	<path class="st5" d="M381.18,200.48c-12.81,8.63-16.88,18.74-9.52,26.1c-60.3,0-120.43,0-181.16,0c2.17-1.28,3.94-2.23,5.62-3.32
		c7.22-4.66,11.47-11.03,11.12-19.92c-0.08-1.96,0.02-3.12,2.69-3.12c56.15,0.09,112.3,0.07,168.44,0.08
		C379.02,200.3,379.67,200.38,381.18,200.48z"/>
	<path class="st5" d="M137.58,142.22c21.24,0,42.49,0.05,63.73-0.06c2.59-0.01,3.39,0.6,3.31,3.27c-0.2,6.76-0.15,13.54-0.02,20.31
		c0.04,2.16-0.37,2.99-2.81,2.98c-41.91-0.08-83.81-0.08-125.72,0c-2.15,0-2.78-0.81-3.13-2.67c-1.17-6.17-2.45-12.32-3.73-18.46
		c-0.83-3.97,0.2-5.36,4.28-5.36C94.85,142.21,116.22,142.22,137.58,142.22z"/>
	<path class="st6" d="M394.76,226.76c5.84-3.31,10.43-6.43,12.7-11.91c1.53-3.71,2.02-7.61,1.78-11.59
		c-0.13-2.12,0.28-3.04,2.77-3.04c39.58,0.08,79.16,0.08,118.74,0c2.42,0,2.92,0.78,2.88,3c-0.12,6.65-0.19,13.31,0.02,19.96
		c0.1,2.93-0.8,3.64-3.68,3.63c-40.86-0.1-81.73-0.07-122.6-0.07C403.54,226.76,399.7,226.76,394.76,226.76z"/>
	<path class="st6" d="M471.39,168.66c-19.6,0-39.2-0.07-58.8,0.07c-2.84,0.02-3.46-0.82-3.38-3.48c0.19-6.76,0.14-13.53,0.02-20.3
		c-0.04-2.11,0.5-2.79,2.71-2.79c39.66,0.07,79.33,0.07,118.99,0c2.26,0,2.73,0.81,2.7,2.85c-0.1,6.88-0.15,13.77,0.02,20.65
		c0.06,2.5-0.72,3.06-3.12,3.05C510.82,168.62,491.1,168.66,471.39,168.66z"/>
	<path class="st7" d="M471.57,113.34c19.61,0,39.22,0.05,58.83-0.06c2.59-0.02,3.34,0.57,3.26,3.23
		c-0.22,6.65-0.16,13.31-0.03,19.96c0.04,2.3-0.41,3.26-3.02,3.25c-39.45-0.08-78.91-0.08-118.36,0c-2.54,0.01-3.09-0.82-3.04-3.18
		c0.15-6.53,0.2-13.08-0.02-19.61c-0.1-2.83,0.53-3.69,3.54-3.67C432.35,113.41,451.96,113.34,471.57,113.34z"/>
	<path class="st8" d="M471.2,171.42c19.71,0,39.43,0.04,59.14-0.06c2.49-0.01,3.42,0.42,3.32,3.18c-0.23,6.76-0.15,13.53-0.03,20.29
		c0.03,2.04-0.39,2.82-2.66,2.81c-39.66-0.07-79.32-0.07-118.98-0.01c-2.08,0-2.82-0.45-2.77-2.69c0.15-6.65,0.21-13.3-0.02-19.94
		c-0.1-2.85,0.56-3.69,3.56-3.67C432.24,171.49,451.72,171.42,471.2,171.42z"/>
	<path class="st9" d="M74.53,139.24c2.6-3.07,5.05-5.83,7.34-8.71c3.42-4.3,6.3-8.99,8.05-14.18c0.91-2.7,2.3-3.1,4.81-3.07
		c10.03,0.14,20.06,0.06,30.09,0.06c25.31,0,50.62,0.07,75.93-0.09c3.33-0.02,3.98,1,3.88,4.04c-0.22,6.64-0.12,13.3-0.04,19.94
		c0.02,1.76-0.43,2.46-2.32,2.46c-42.22-0.05-84.45-0.05-126.67-0.07C75.39,139.62,75.18,139.47,74.53,139.24z"/>
	<path class="st10" d="M92.02,171.42c0.89,0,1.78,0,2.68,0c35.47,0,70.95,0.03,106.42-0.05c2.59-0.01,3.62,0.44,3.52,3.35
		c-0.25,6.76-0.14,13.53-0.04,20.3c0.03,1.9-0.39,2.63-2.47,2.63c-31.27-0.06-62.54-0.05-93.82-0.03c-1.35,0-2.34,0.11-2.35-1.92
		C105.88,185.11,100.78,177.41,92.02,171.42z"/>
	<path class="st5" d="M357.08,168.66c-15.3,0-30.59-0.05-45.89,0.05c-2.57,0.02-3.66-0.39-3.55-3.34
		c0.25-6.76,0.14-13.54,0.04-20.31c-0.03-1.98,0.28-2.9,2.62-2.89c31.29,0.08,62.58,0.07,93.88,0c2.19,0,2.44,0.92,2.42,2.71
		c-0.07,7.01-0.14,14.01,0.03,21.02c0.06,2.42-0.8,2.82-2.97,2.81C388.14,168.62,372.61,168.66,357.08,168.66z"/>
	<path class="st11" d="M256.49,142.22c15.16,0,30.32,0.05,45.49-0.05c2.39-0.02,3.22,0.57,3.17,3.08
		c-0.16,6.88-0.12,13.76-0.02,20.64c0.03,1.97-0.25,2.84-2.59,2.83c-30.91-0.09-61.81-0.09-92.72,0c-2.32,0.01-2.63-0.82-2.6-2.81
		c0.11-6.88,0.14-13.76-0.02-20.64c-0.06-2.45,0.67-3.12,3.11-3.1C225.7,142.27,241.1,142.22,256.49,142.22z"/>
	<path class="st3" d="M356.98,139.66c-15.28,0-30.57-0.07-45.85,0.07c-2.78,0.02-3.56-0.75-3.48-3.51c0.2-6.64,0.14-13.3,0.02-19.95
		c-0.04-2.13,0.33-3,2.79-2.99c31.15,0.09,62.3,0.08,93.45,0.01c2.14-0.01,2.76,0.5,2.71,2.68c-0.15,6.88-0.16,13.77,0,20.65
		c0.06,2.45-0.64,3.11-3.1,3.1C388.02,139.6,372.5,139.66,356.98,139.66z"/>
	<path class="st6" d="M256.3,113.34c15.18,0,30.35,0.05,45.53-0.05c2.44-0.02,3.44,0.33,3.34,3.14c-0.24,6.88-0.14,13.77-0.04,20.66
		c0.03,1.93-0.49,2.62-2.53,2.62c-30.93-0.06-61.87-0.06-92.8,0c-1.95,0-2.62-0.51-2.59-2.53c0.11-7,0.14-14.01-0.01-21.01
		c-0.05-2.3,0.6-2.89,2.88-2.87C225.48,113.39,240.89,113.34,256.3,113.34z"/>
	<path class="st6" d="M181.7,200.29c-4.16,2.79-8.2,5.42-11.31,9.29c-4.82,5.98-4.77,11.08,0.28,16.77
		c-0.47,0.81-1.25,0.39-1.86,0.39c-26.58,0.03-53.17,0.03-79.75-0.02c-1.21,0-2.9,0.85-3.48-1.25c-0.6-2.2,1.28-2.43,2.47-3.13
		c8.06-4.77,14.49-10.94,17.07-20.26c0.62-2.22,2.09-1.78,3.52-1.78c15.27-0.02,30.55-0.01,45.82-0.01
		C163.54,200.29,172.62,200.29,181.7,200.29z"/>
	<path class="st8" d="M382.07,171.42c-13.7,8.62-17.44,17.72-10.89,25.95c-26.4,0-52.62,0-79.27,0c2.51-1.69,4.76-3.02,6.81-4.61
		c6.13-4.75,9.24-11.04,8.97-18.84c-0.07-1.99,0.55-2.55,2.53-2.54C333.91,171.44,357.6,171.42,382.07,171.42z"/>
	<path class="st10" d="M282.47,171.42c-4.38,2.63-8.5,5.31-11.73,9.23c-4.8,5.83-4.98,10.74-0.49,16.59
		c-0.53,0.66-1.28,0.34-1.91,0.34c-19.36,0.02-38.73-0.03-58.09,0.08c-2.47,0.01-3.13-0.63-3.06-3.08
		c0.17-6.88,0.13-13.76,0.02-20.64c-0.03-1.93,0.45-2.56,2.48-2.56C233.95,171.45,258.21,171.42,282.47,171.42z"/>
	<path class="st7" d="M33.88,200.29c4.67,0,9.33,0.07,13.97-0.04c1.6-0.04,2.14,0.79,2.83,1.99c3.01,5.25,7.7,8.08,13.65,9.04
		c-3.47-2.86-6.44-6-7.61-10.99c6.59,0,12.92,0.01,19.26-0.01c1.48,0,1.56,1.1,1.77,2.13c1.15,5.45,2.16,10.94,3.5,16.34
		c0.66,2.66-0.32,3.85-2.67,4.5c-13.77,3.81-26.06,1.09-36.49-8.7C36.61,209.41,34.47,205.15,33.88,200.29z"/>
	<path class="st2" d="M70.49,110.54c-7.29,0-7.41-0.01-6.61-7.42c0.86-8,2.7-15.78,6.5-22.94c1.75-3.29,3.88-6.36,7.71-7.68
		c2.24-0.77,3.96-0.41,5.5,1.58c5.05,6.54,5.11,13.67,2.74,21.12c-1.64,5.15-4.57,9.6-7.69,13.96c-0.77,1.07-1.64,1.47-2.92,1.4
		C73.98,110.48,72.23,110.54,70.49,110.54z"/>
	<path class="st9" d="M377.4,197.06c-2.57-0.25-5.09-0.4-6.3-3.09c-1.14-2.54-0.35-4.86,1.42-6.74c7.16-7.56,15.88-12.46,26.05-14.6
		c2.49-0.52,5.34-0.05,6.75,2.56c1.36,2.52,0.62,5.05-1.29,7.07C396.69,189.99,387.76,194.86,377.4,197.06z"/>
	<path class="st9" d="M377.2,225.77c-2.45-0.26-4.82-0.43-6.03-2.95c-1.22-2.54-0.5-4.86,1.26-6.75c7.1-7.62,15.85-12.48,25.99-14.7
		c2.49-0.55,5.32-0.14,6.81,2.42c1.56,2.66,0.67,5.27-1.33,7.34C396.51,218.78,387.62,223.72,377.2,225.77z"/>
	<path class="st11" d="M64.47,171.42c-8.79,4.97-14.57,10.94-15.81,20.32c-0.03,0.23-0.05,0.47-0.12,0.69
		c-0.59,1.64,1.12,3.96-0.39,4.84c-1.4,0.83-3.61,0.3-5.47,0.33c-1.98,0.03-4-0.24-5.94,0.06c-3.71,0.57-4.12-1.38-4.01-4.35
		c0.27-7.29,2.67-13.84,6.5-19.96c0.7-1.11,1.28-2,2.9-1.98C49.23,171.48,56.32,171.42,64.47,171.42z"/>
	<path class="st7" d="M70.55,168.57c-9.34,0-18.31,0-27.86,0c6.35-8.92,14.47-15.51,23.18-22.33
		C67.47,153.85,68.99,161.12,70.55,168.57z"/>
	<path class="st7" d="M66.32,197.61c-2.56,0-5.12-0.12-7.67,0.04c-2.19,0.13-2.37-0.7-2.06-2.64c1.21-7.59,9.15-11.82,15.54-12.94
		c1.05-0.19,1.37,0.26,1.57,1.26c0.84,4.2,1.77,8.38,2.68,12.56c0.32,1.47-0.41,1.78-1.7,1.75
		C71.9,197.57,69.11,197.61,66.32,197.61z"/>
	<path class="st7" d="M87.74,197.61c-7.99,0-8,0-9.72-7.79c-0.32-1.47-0.59-2.95-0.87-4.43c-0.86-4.43-0.86-4.43,3.82-4.05
		c6.86,0.56,13.72,7.45,14.79,14.66c0.21,1.42-0.29,1.61-1.39,1.61C92.16,197.6,89.95,197.61,87.74,197.61z"/>
	<path class="st12" d="M84.54,220.06c-1.33-6.09-2.51-11.65-3.77-17.2c-0.43-1.88-0.12-2.74,2.11-2.62
		c3.37,0.18,6.79,0.27,10.14-0.02c2.89-0.25,3.41,0.95,2.92,3.37C94.52,210.55,90.54,215.73,84.54,220.06z"/>
	<path class="st13" d="M75.1,113.46c-3.72,3.73-7.05,7.07-10.36,10.39c-0.37-0.28-0.67-0.39-0.69-0.54
		C62.44,112.91,62.44,112.91,75.1,113.46z"/>
	<path class="st13" d="M406,188.87c0.38,0.49,0.5,0.57,0.5,0.64c-0.22,10.05,2.58,7.98-10.39,7.96
		C400.02,194.78,403.61,192.63,406,188.87z"/>
	<rect id="_x3C_Slice_x3E_" x="445" y="123" class="st14" width="88" height="183"/>
</g>
</svg>
