<?xml version="1.0" encoding="utf-8"?>
<!-- Generator: Adobe Illustrator 23.0.1, SVG Export Plug-In . SVG Version: 6.00 Build 0)  -->
<svg version="1.1" id="Layer_1" xmlns="http://www.w3.org/2000/svg" xmlns:xlink="http://www.w3.org/1999/xlink" x="0px" y="0px"
	 viewBox="0 0 50 50" style="enable-background:new 0 0 50 50;" xml:space="preserve">
<g>
	<path d="M3.7,25c0-3.9,0-7.8,0-11.7c0-0.5,0.2-0.8,0.6-1.1c6.8-3.9,13.5-7.8,20.3-11.7c0.4-0.3,0.8-0.3,1.2,0
		c6.8,3.9,13.5,7.8,20.3,11.7c0.5,0.3,0.6,0.6,0.6,1.1c0,7.8,0,15.6,0,23.4c0,0.5-0.2,0.8-0.6,1.1c-6.7,3.9-13.5,7.8-20.2,11.7
		c-0.4,0.3-0.8,0.3-1.2,0c-6.7-3.9-13.5-7.8-20.3-11.7c-0.5-0.3-0.6-0.6-0.6-1.1C3.7,32.8,3.7,28.9,3.7,25z M17.7,43.7
		c0.2-0.1,0.4-0.2,0.5-0.2c6.4-3.7,12.7-7.3,19.1-11c0.4-0.2,0.5-0.5,0.5-1c0-6.6,0-13.2,0-19.8c0-0.2,0-0.5,0-0.7
		c-1.8,0-3.5,0-5.2,0c0,0.3,0,0.6,0,0.9c0,5.4,0,10.8,0,16.2c0,0.7-0.2,1.2-0.9,1.5c-4.5,2.5-8.9,5.1-13.4,7.7
		c-0.3,0.1-0.6,0.5-0.6,0.7C17.7,39.9,17.7,41.7,17.7,43.7z M25.1,47.6c0.3-0.1,0.4-0.2,0.5-0.3c6.4-3.7,12.7-7.3,19.1-11
		c0.5-0.3,0.5-0.6,0.5-1.1c0-6.6,0-13.1,0-19.7c0-0.3,0-0.5,0-0.8c-1.8,0-3.5,0-5.2,0c0,0.3,0,0.6,0,0.9c0,5.5,0,11,0,16.4
		c0,0.6-0.2,0.9-0.7,1.2c-4.5,2.6-9,5.2-13.5,7.8c-0.2,0.1-0.6,0.4-0.6,0.6C25.1,43.7,25.1,45.6,25.1,47.6z M32.6,9.5
		c1.8,0,3.4,0,5.3,0c-1.8-1.1-3.5-2-5.3-3C32.6,7.5,32.6,8.5,32.6,9.5z M45.3,13.4c-1.9-1.1-3.6-2.1-5.3-3.1c0,1.1,0,2.1,0,3.1
		C41.7,13.4,43.4,13.4,45.3,13.4z"/>
</g>
</svg>
